<?xml version="1.0" encoding="UTF-8"?>
<svg xmlns="http://www.w3.org/2000/svg" version="1.1" viewBox="0 0 1280 1280">
  <defs>
    <style>
      .cls-1 {
        fill: #fff;
      }

      .cls-2 {
        fill: none;
      }
    </style>
  </defs>
  <!-- Generator: Adobe Illustrator 28.7.1, SVG Export Plug-In . SVG Version: 1.2.0 Build 142)  -->
  <g>
    <g id="Layer_1">
      <g>
        <circle class="cls-2" cx="640" cy="640" r="285.79"/>
        <path class="cls-1" d="M476.16,317.48l4.07-1.91,5.17,10.99-4.07,1.91-5.17-10.99ZM477.27,330.38l4.07-1.91,5.17,10.99-4.07,1.91-5.17-10.99ZM480.23,315.57l4.07-1.91,5.17,10.99-4.07,1.91-5.17-10.99ZM482.43,341.37l4.07-1.91,5.17,10.99-4.07,1.91-5.17-10.99ZM483.53,354.27l4.07-1.91,5.17,10.99-4.07,1.91-5.17-10.99ZM484.3,313.66l4.07-1.91,5.17,10.99-4.07,1.91-5.17-10.99ZM486.5,339.46l4.07-1.91,5.17,10.99-4.07,1.91-5.17-10.99ZM488.36,311.75l4.07-1.91,5.17,10.99-4.07,1.91-5.17-10.99ZM488.7,365.26l4.07-1.91,5.17,10.99-4.07,1.91-5.17-10.99ZM491.66,350.45l4.07-1.91,5.17,10.99-4.07,1.91-5.17-10.99ZM492.43,309.84l4.07-1.91,5.17,10.99-4.07,1.91-5.17-10.99ZM492.76,363.35l4.07-1.91,5.17,10.99-4.07,1.91-5.17-10.99ZM495.73,348.54l4.07-1.91,5.17,10.99-4.07,1.91-5.17-10.99ZM496.49,307.93l4.07-1.91,5.17,10.99-4.07,1.91-5.17-10.99ZM497.59,320.83l4.07-1.91,5.17,10.99-4.07,1.91-5.17-10.99ZM497.93,374.34l4.07-1.91,5.17,10.99-4.07,1.91-5.17-10.99ZM499.8,346.63l4.07-1.91,5.17,10.99-4.07,1.91-5.17-10.99ZM500.9,359.53l4.07-1.91,5.17,10.99-4.07,1.91-5.17-10.99ZM501.66,318.91l4.07-1.91,5.17,10.99-4.07,1.91-5.17-10.99ZM502,372.43l4.07-1.91,5.17,10.99-4.07,1.91-5.17-10.99ZM504.96,357.62l4.07-1.91,5.17,10.99-4.07,1.91-5.17-10.99ZM505.73,317l4.07-1.91,5.17,10.99-4.07,1.91-5.17-10.99ZM507.16,383.42l4.07-1.91,5.17,10.99-4.07,1.91-5.17-10.99ZM508.69,302.19l4.07-1.91,5.17,10.99-4.07,1.91-5.17-10.99ZM509.03,355.7l4.07-1.91,5.17,10.99-4.07,1.91-5.17-10.99ZM509.79,315.09l4.07-1.91,5.17,10.99-4.07,1.91-5.17-10.99ZM510.89,327.99l4.07-1.91,5.17,10.99-4.07,1.91-5.17-10.99ZM511.23,381.51l4.07-1.91,5.17,10.99-4.07,1.91-5.17-10.99ZM513.09,353.79l4.07-1.91,5.17,10.99-4.07,1.91-5.17-10.99ZM514.19,366.69l4.07-1.91,5.17,10.99-4.07,1.91-5.17-10.99ZM515.3,379.59l4.07-1.91,5.17,10.99-4.07,1.91-5.17-10.99ZM517.16,351.88l4.07-1.91,5.17,10.99-4.07,1.91-5.17-10.99ZM518.26,364.78l4.07-1.91,5.17,10.99-4.07,1.91-5.17-10.99ZM519.7,431.2l4.07-1.91,5.17,10.99-4.07,1.91-5.17-10.99ZM520.46,390.58l4.07-1.91,5.17,10.99-4.07,1.91-5.17-10.99ZM520.8,444.1l4.07-1.91,5.17,10.99-4.07,1.91-5.17-10.99ZM522.33,362.87l4.07-1.91,5.17,10.99-4.07,1.91-5.17-10.99ZM522.66,416.38l4.07-1.91,5.17,10.99-4.07,1.91-5.17-10.99ZM523.76,429.28l4.07-1.91,5.17,10.99-4.07,1.91-5.17-10.99ZM524.53,388.67l4.07-1.91,5.17,10.99-4.07,1.91-5.17-10.99ZM526.39,360.96l4.07-1.91,5.17,10.99-4.07,1.91-5.17-10.99ZM526.73,414.47l4.07-1.91,5.17,10.99-4.07,1.91-5.17-10.99ZM527.83,427.37l4.07-1.91,5.17,10.99-4.07,1.91-5.17-10.99ZM528.59,386.76l4.07-1.91,5.17,10.99-4.07,1.91-5.17-10.99ZM530.46,359.05l4.07-1.91,5.17,10.99-4.07,1.91-5.17-10.99ZM530.8,412.56l4.07-1.91,5.17,10.99-4.07,1.91-5.17-10.99ZM531.56,371.95l4.07-1.91,5.17,10.99-4.07,1.91-5.17-10.99ZM531.9,425.46l4.07-1.91,5.17,10.99-4.07,1.91-5.17-10.99ZM532.66,384.85l4.07-1.91,5.17,10.99-4.07,1.91-5.17-10.99ZM533.76,397.75l4.07-1.91,5.17,10.99-4.07,1.91-5.17-10.99ZM535.62,370.04l4.07-1.91,5.17,10.99-4.07,1.91-5.17-10.99ZM535.96,423.55l4.07-1.91,5.17,10.99-4.07,1.91-5.17-10.99ZM537.06,436.45l4.07-1.91,5.17,10.99-4.07,1.91-5.17-10.99ZM537.83,395.84l4.07-1.91,5.17,10.99-4.07,1.91-5.17-10.99ZM539.69,368.12l4.07-1.91,5.17,10.99-4.07,1.91-5.17-10.99ZM540.03,421.64l4.07-1.91,5.17,10.99-4.07,1.91-5.17-10.99ZM540.79,381.02l4.07-1.91,5.17,10.99-4.07,1.91-5.17-10.99ZM541.13,434.54l4.07-1.91,5.17,10.99-4.07,1.91-5.17-10.99ZM541.89,393.92l4.07-1.91,5.17,10.99-4.07,1.91-5.17-10.99ZM544.09,419.73l4.07-1.91,5.17,10.99-4.07,1.91-5.17-10.99ZM544.86,379.11l4.07-1.91,5.17,10.99-4.07,1.91-5.17-10.99ZM545.19,432.63l4.07-1.91,5.17,10.99-4.07,1.91-5.17-10.99ZM548.16,417.81l4.07-1.91,5.17,10.99-4.07,1.91-5.17-10.99ZM550.02,390.1l4.07-1.91,5.17,10.99-4.07,1.91-5.17-10.99ZM551.12,403l4.07-1.91,5.17,10.99-4.07,1.91-5.17-10.99ZM552.23,415.9l4.07-1.91,5.17,10.99-4.07,1.91-5.17-10.99ZM556.29,413.99l4.07-1.91,5.17,10.99-4.07,1.91-5.17-10.99Z"/>
        <path class="cls-1" d="M544.86,316.37l4.33-1.21,3.26,11.7-4.33,1.21-3.26-11.7ZM545.92,303.46l4.33-1.21,3.26,11.7-4.33,1.21-3.26-11.7ZM547.06,340.97l4.33-1.21,3.26,11.7-4.33,1.21-3.26-11.7ZM548.12,328.06l4.33-1.21,3.26,11.7-4.33,1.21-3.26-11.7ZM549.18,315.16l4.33-1.21,3.26,11.7-4.33,1.21-3.26-11.7ZM551.38,339.76l4.33-1.21,3.26,11.7-4.33,1.21-3.26-11.7ZM552.45,326.86l4.33-1.21,3.26,11.7-4.33,1.21-3.26-11.7ZM554.65,351.46l4.33-1.21,3.26,11.7-4.33,1.21-3.26-11.7ZM555.71,338.55l4.33-1.21,3.26,11.7-4.33,1.21-3.26-11.7ZM557.91,363.15l4.33-1.21,3.26,11.7-4.33,1.21-3.26-11.7ZM558.98,350.25l4.33-1.21,3.26,11.7-4.33,1.21-3.26-11.7ZM560.04,337.34l4.33-1.21,3.26,11.7-4.33,1.21-3.26-11.7ZM561.18,374.85l4.33-1.21,3.26,11.7-4.33,1.21-3.26-11.7ZM562.24,361.94l4.33-1.21,3.26,11.7-4.33,1.21-3.26-11.7ZM564.37,336.14l4.33-1.21,3.26,11.7-4.33,1.21-3.26-11.7ZM564.44,386.54l4.33-1.21,3.26,11.7-4.33,1.21-3.26-11.7ZM565.5,373.64l4.33-1.21,3.26,11.7-4.33,1.21-3.26-11.7ZM566.64,411.14l4.33-1.21,3.26,11.7-4.33,1.21-3.26-11.7ZM567.7,398.24l4.33-1.21,3.26,11.7-4.33,1.21-3.26-11.7ZM568.77,385.34l4.33-1.21,3.26,11.7-4.33,1.21-3.26-11.7ZM570.97,409.94l4.33-1.21,3.26,11.7-4.33,1.21-3.26-11.7ZM572.03,397.03l4.33-1.21,3.26,11.7-4.33,1.21-3.26-11.7ZM575.3,408.73l4.33-1.21,3.26,11.7-4.33,1.21-3.26-11.7ZM578.56,420.42l4.33-1.21,3.26,11.7-4.33,1.21-3.26-11.7ZM579.62,407.52l4.33-1.21,3.26,11.7-4.33,1.21-3.26-11.7ZM582.89,419.22l4.33-1.21,3.26,11.7-4.33,1.21-3.26-11.7ZM583.95,406.31l4.33-1.21,3.26,11.7-4.33,1.21-3.26-11.7Z"/>
        <path class="cls-1" d="M590.57,355.43l4.45-.63,1.69,12.02-4.45.63-1.69-12.02ZM592.26,367.45l4.45-.63,1.69,12.02-4.45.63-1.69-12.02ZM592.89,404.15l4.45-.63,1.69,12.02-4.45.63-1.69-12.02ZM593.33,342.77l4.45-.63,1.69,12.02-4.45.63-1.69-12.02ZM593.96,379.47l4.45-.63,1.69,12.02-4.45.63-1.69-12.02ZM595.02,354.8l4.45-.63,1.69,12.02-4.45.63-1.69-12.02ZM595.65,391.5l4.45-.63,1.69,12.02-4.45.63-1.69-12.02ZM596.08,330.12l4.45-.63,1.69,12.02-4.45.63-1.69-12.02ZM596.71,366.82l4.45-.63,1.69,12.02-4.45.63-1.69-12.02ZM597.34,403.52l4.45-.63,1.69,12.02-4.45.63-1.69-12.02ZM598.4,378.85l4.45-.63,1.69,12.02-4.45.63-1.69-12.02ZM599.03,415.55l4.45-.63,1.69,12.02-4.45.63-1.69-12.02ZM600.1,390.87l4.45-.63,1.69,12.02-4.45.63-1.69-12.02ZM600.53,329.5l4.45-.63,1.69,12.02-4.45.63-1.69-12.02ZM601.16,366.2l4.45-.63,1.69,12.02-4.45.63-1.69-12.02ZM601.79,402.9l4.45-.63,1.69,12.02-4.45.63-1.69-12.02ZM602.22,341.52l4.45-.63,1.69,12.02-4.45.63-1.69-12.02ZM603.48,414.92l4.45-.63,1.69,12.02-4.45.63-1.69-12.02ZM604.98,328.87l4.45-.63,1.69,12.02-4.45.63-1.69-12.02ZM605.61,365.57l4.45-.63,1.69,12.02-4.45.63-1.69-12.02ZM606.24,402.27l4.45-.63,1.69,12.02-4.45.63-1.69-12.02ZM606.67,340.9l4.45-.63,1.69,12.02-4.45.63-1.69-12.02ZM608.37,352.92l4.45-.63,1.69,12.02-4.45.63-1.69-12.02ZM610.69,401.64l4.45-.63,1.69,12.02-4.45.63-1.69-12.02ZM611.12,340.27l4.45-.63,1.69,12.02-4.45.63-1.69-12.02ZM612.81,352.29l4.45-.63,1.69,12.02-4.45.63-1.69-12.02Z"/>
        <path class="cls-1" d="M626.3,411.77l4.49.08-.22,12.14-4.49-.08.22-12.14ZM627.64,338.93l4.49.08-.22,12.14-4.49-.08.22-12.14ZM631.02,399.71l4.49.08-.22,12.14-4.49-.08.22-12.14ZM632.14,339.01l4.49.08-.22,12.14-4.49-.08.22-12.14ZM632.36,326.87l4.49.08-.22,12.14-4.49-.08.22-12.14ZM634.61,448.36l4.49.08-.22,12.14-4.49-.08.22-12.14ZM634.84,436.22l4.49.08-.22,12.14-4.49-.08.22-12.14ZM635.06,424.08l4.49.08-.22,12.14-4.49-.08.22-12.14ZM635.29,411.94l4.49.08-.22,12.14-4.49-.08.22-12.14ZM635.51,399.8l4.49.08-.22,12.14-4.49-.08.22-12.14ZM635.73,387.65l4.49.08-.22,12.14-4.49-.08.22-12.14ZM635.96,375.51l4.49.08-.22,12.14-4.49-.08.22-12.14ZM636.18,363.37l4.49.08-.22,12.14-4.49-.08.22-12.14ZM636.4,351.23l4.49.08-.22,12.14-4.49-.08.22-12.14ZM636.63,339.09l4.49.08-.22,12.14-4.49-.08.22-12.14ZM636.85,326.95l4.49.08-.22,12.14-4.49-.08.22-12.14ZM639.33,436.3l4.49.08-.22,12.14-4.49-.08.22-12.14ZM639.55,424.16l4.49.08-.22,12.14-4.49-.08.22-12.14ZM639.78,412.02l4.49.08-.22,12.14-4.49-.08.22-12.14ZM640,399.88l4.49.08-.22,12.14-4.49-.08.22-12.14ZM640.23,387.74l4.49.08-.22,12.14-4.49-.08.22-12.14ZM640.45,375.6l4.49.08-.22,12.14-4.49-.08.22-12.14ZM640.67,363.46l4.49.08-.22,12.14-4.49-.08.22-12.14ZM640.9,351.31l4.49.08-.22,12.14-4.49-.08.22-12.14ZM641.12,339.17l4.49.08-.22,12.14-4.49-.08.22-12.14ZM644.49,399.96l4.49.08-.22,12.14-4.49-.08.22-12.14ZM645.61,339.26l4.49.08-.22,12.14-4.49-.08.22-12.14ZM648.99,400.04l4.49.08-.22,12.14-4.49-.08.22-12.14ZM650.1,339.34l4.49.08-.22,12.14-4.49-.08.22-12.14ZM650.33,327.2l4.49.08-.22,12.14-4.49-.08.22-12.14ZM653.25,412.27l4.49.08-.22,12.14-4.49-.08.22-12.14ZM653.48,400.13l4.49.08-.22,12.14-4.49-.08.22-12.14ZM653.7,387.99l4.49.08-.22,12.14-4.49-.08.22-12.14ZM653.93,375.85l4.49.08-.22,12.14-4.49-.08.22-12.14ZM654.15,363.7l4.49.08-.22,12.14-4.49-.08.22-12.14ZM654.37,351.56l4.49.08-.22,12.14-4.49-.08.22-12.14ZM654.6,339.42l4.49.08-.22,12.14-4.49-.08.22-12.14ZM654.82,327.28l4.49.08-.22,12.14-4.49-.08.22-12.14ZM657.97,400.21l4.49.08-.22,12.14-4.49-.08.22-12.14ZM658.19,388.07l4.49.08-.22,12.14-4.49-.08.22-12.14ZM658.42,375.93l4.49.08-.22,12.14-4.49-.08.22-12.14ZM658.64,363.79l4.49.08-.22,12.14-4.49-.08.22-12.14ZM658.87,351.65l4.49.08-.22,12.14-4.49-.08.22-12.14ZM659.09,339.51l4.49.08-.22,12.14-4.49-.08.22-12.14ZM662.46,400.29l4.49.08-.22,12.14-4.49-.08.22-12.14ZM663.58,339.59l4.49.08-.22,12.14-4.49-.08.22-12.14Z"/>
        <path class="cls-1" d="M695.08,406.08l4.33,1.19-3.22,11.71-4.33-1.19,3.21-11.71ZM699.42,407.27l4.33,1.19-3.21,11.71-4.33-1.19,3.22-11.71ZM700.53,420.17l4.33,1.19-3.21,11.71-4.33-1.19,3.22-11.71ZM702.63,395.56l4.33,1.19-3.22,11.71-4.33-1.19,3.21-11.71ZM703.75,408.46l4.33,1.19-3.22,11.71-4.33-1.19,3.21-11.71ZM704.87,421.36l4.33,1.19-3.22,11.71-4.33-1.19,3.21-11.71ZM705.85,383.85l4.33,1.19-3.21,11.71-4.33-1.19,3.22-11.71ZM706.96,396.75l4.33,1.19-3.21,11.71-4.33-1.19,3.22-11.71ZM708.08,409.65l4.33,1.19-3.21,11.71-4.33-1.19,3.22-11.71ZM709.06,372.15l4.33,1.19-3.21,11.71-4.33-1.19,3.21-11.71ZM710.18,385.04l4.33,1.19-3.22,11.71-4.33-1.19,3.21-11.71ZM712.28,360.44l4.33,1.19-3.22,11.71-4.33-1.19,3.21-11.71ZM712.41,410.84l4.33,1.19-3.22,11.71-4.33-1.19,3.21-11.71ZM713.39,373.33l4.33,1.19-3.21,11.71-4.33-1.19,3.21-11.71ZM714.38,335.83l4.33,1.19-3.21,11.71-4.33-1.19,3.22-11.71ZM715.49,348.73l4.33,1.19-3.21,11.71-4.33-1.19,3.22-11.71ZM716.61,361.62l4.33,1.19-3.21,11.71-4.33-1.19,3.22-11.71ZM718.71,337.02l4.33,1.19-3.22,11.71-4.33-1.19,3.21-11.71ZM719.82,349.92l4.33,1.19-3.22,11.71-4.33-1.19,3.21-11.71ZM721.92,325.31l4.33,1.19-3.21,11.71-4.33-1.19,3.22-11.71ZM723.04,338.21l4.33,1.19-3.21,11.71-4.33-1.19,3.22-11.71ZM725.14,313.6l4.33,1.19-3.22,11.71-4.33-1.19,3.21-11.71ZM726.25,326.5l4.33,1.19-3.22,11.71-4.33-1.19,3.21-11.71ZM727.37,339.4l4.33,1.19-3.22,11.71-4.33-1.19,3.21-11.71ZM729.47,314.79l4.33,1.19-3.21,11.71-4.33-1.19,3.22-11.71ZM731.71,340.59l4.33,1.19-3.21,11.71-4.33-1.19,3.22-11.71ZM732.69,303.08l4.33,1.19-3.21,11.71-4.33-1.19,3.21-11.71Z"/>
        <path class="cls-1" d="M713.77,463.18l4.12,1.78-4.81,11.15-4.12-1.78,4.81-11.15ZM718.59,452.03l4.12,1.78-4.82,11.15-4.12-1.78,4.81-11.15ZM719.97,426.17l4.12,1.78-4.81,11.15-4.12-1.78,4.81-11.15ZM720.66,413.24l4.12,1.78-4.82,11.15-4.12-1.78,4.81-11.15ZM722.71,453.81l4.12,1.78-4.81,11.15-4.12-1.78,4.82-11.15ZM724.09,427.95l4.12,1.78-4.82,11.15-4.12-1.78,4.81-11.15ZM724.78,415.02l4.12,1.78-4.81,11.15-4.12-1.78,4.82-11.15ZM727.53,442.66l4.12,1.78-4.81,11.15-4.12-1.78,4.81-11.15ZM728.91,416.8l4.12,1.78-4.81,11.15-4.12-1.78,4.81-11.15ZM729.6,403.88l4.12,1.78-4.82,11.15-4.12-1.78,4.81-11.15ZM731.65,444.44l4.12,1.78-4.81,11.15-4.12-1.78,4.81-11.15ZM733.03,418.59l4.12,1.78-4.81,11.15-4.12-1.78,4.81-11.15ZM733.72,405.66l4.12,1.78-4.81,11.15-4.12-1.78,4.82-11.15ZM734.41,392.73l4.12,1.78-4.81,11.15-4.12-1.78,4.81-11.15ZM736.47,433.3l4.12,1.78-4.81,11.15-4.12-1.78,4.82-11.15ZM738.54,394.51l4.12,1.78-4.81,11.15-4.12-1.78,4.81-11.15ZM739.23,381.58l4.12,1.78-4.81,11.15-4.12-1.78,4.81-11.15ZM740.59,435.08l4.12,1.78-4.81,11.15-4.12-1.78,4.81-11.15ZM741.28,422.15l4.12,1.78-4.82,11.15-4.12-1.78,4.81-11.15ZM743.35,383.36l4.12,1.78-4.82,11.15-4.12-1.78,4.81-11.15ZM744.04,370.43l4.12,1.78-4.81,11.15-4.12-1.78,4.82-11.15ZM745.41,423.93l4.12,1.78-4.81,11.15-4.12-1.78,4.82-11.15ZM746.09,411l4.12,1.78-4.81,11.15-4.12-1.78,4.81-11.15ZM748.17,372.21l4.12,1.78-4.81,11.15-4.12-1.78,4.81-11.15ZM748.86,359.29l4.12,1.78-4.82,11.15-4.12-1.78,4.81-11.15ZM750.22,412.78l4.12,1.78-4.81,11.15-4.12-1.78,4.81-11.15ZM750.91,399.85l4.12,1.78-4.81,11.15-4.12-1.78,4.82-11.15ZM752.98,361.07l4.12,1.78-4.81,11.15-4.12-1.78,4.82-11.15ZM753.67,348.14l4.12,1.78-4.81,11.15-4.12-1.78,4.81-11.15ZM755.03,401.63l4.12,1.78-4.82,11.15-4.12-1.78,4.81-11.15ZM755.72,388.71l4.12,1.78-4.81,11.15-4.12-1.78,4.81-11.15ZM757.1,362.85l4.12,1.78-4.81,11.15-4.12-1.78,4.81-11.15ZM757.79,349.92l4.12,1.78-4.81,11.15-4.12-1.78,4.81-11.15ZM758.49,336.99l4.12,1.78-4.81,11.15-4.12-1.78,4.82-11.15ZM759.85,390.49l4.12,1.78-4.81,11.15-4.12-1.78,4.81-11.15ZM760.54,377.56l4.12,1.78-4.82,11.15-4.12-1.78,4.81-11.15ZM762.61,338.77l4.12,1.78-4.82,11.15-4.12-1.78,4.81-11.15ZM763.3,325.84l4.12,1.78-4.81,11.15-4.12-1.78,4.81-11.15ZM764.66,379.34l4.12,1.78-4.81,11.15-4.12-1.78,4.82-11.15ZM765.35,366.41l4.12,1.78-4.81,11.15-4.12-1.78,4.81-11.15ZM766.04,353.48l4.12,1.78-4.82,11.15-4.12-1.78,4.81-11.15ZM767.42,327.62l4.12,1.78-4.81,11.15-4.12-1.78,4.81-11.15ZM768.11,314.69l4.12,1.78-4.82,11.15-4.12-1.78,4.81-11.15ZM769.48,368.19l4.12,1.78-4.81,11.15-4.12-1.78,4.81-11.15ZM770.17,355.26l4.12,1.78-4.81,11.15-4.12-1.78,4.82-11.15ZM772.24,316.48l4.12,1.78-4.81,11.15-4.12-1.78,4.82-11.15ZM773.6,369.97l4.12,1.78-4.81,11.15-4.12-1.78,4.81-11.15ZM777.05,305.33l4.12,1.78-4.82,11.15-4.12-1.78,4.81-11.15Z"/>
        <path class="cls-1" d="M757.18,444.39l3.8,2.39-6.46,10.28-3.8-2.39,6.46-10.28ZM759.83,431.72l3.8,2.39-6.46,10.28-3.81-2.39,6.46-10.28ZM760.99,446.78l3.81,2.39-6.46,10.28-3.81-2.39,6.46-10.28ZM763.64,434.1l3.81,2.39-6.46,10.28-3.8-2.39,6.46-10.28ZM767.44,436.49l3.8,2.39-6.46,10.28-3.81-2.39,6.46-10.28ZM770.09,423.82l3.81,2.39-6.46,10.28-3.81-2.39,6.46-10.28ZM771.25,438.88l3.81,2.39-6.46,10.28-3.8-2.39,6.46-10.28ZM773.9,426.21l3.8,2.39-6.46,10.28-3.8-2.39,6.46-10.28ZM776.55,413.54l3.8,2.39-6.46,10.28-3.81-2.39,6.46-10.28ZM780.35,415.92l3.81,2.39-6.46,10.28-3.8-2.39,6.46-10.28ZM783,403.25l3.81,2.39-6.46,10.28-3.8-2.39,6.46-10.28ZM786.81,405.64l3.81,2.39-6.46,10.28-3.81-2.39,6.46-10.28ZM788.3,377.9l3.8,2.39-6.46,10.28-3.81-2.39,6.46-10.28ZM789.46,392.97l3.81,2.39-6.46,10.28-3.81-2.39,6.46-10.28ZM792.11,380.29l3.81,2.39-6.46,10.28-3.8-2.39,6.46-10.28ZM793.26,395.35l3.8,2.39-6.46,10.28-3.81-2.39,6.46-10.28ZM795.92,382.68l3.8,2.39-6.46,10.28-3.81-2.39,6.46-10.28ZM798.57,370.01l3.81,2.39-6.46,10.28-3.81-2.39,6.46-10.28ZM799.72,385.07l3.81,2.39-6.46,10.28-3.8-2.39,6.46-10.28ZM802.37,372.4l3.8,2.39-6.46,10.28-3.8-2.39,6.46-10.28ZM807.33,389.85l3.8,2.39-6.46,10.28-3.81-2.39,6.46-10.28ZM809.98,377.17l3.8,2.39-6.46,10.28-3.81-2.39,6.46-10.28ZM811.14,392.24l3.81,2.39-6.46,10.28-3.8-2.39,6.46-10.28ZM813.79,379.56l3.81,2.39-6.46,10.28-3.8-2.39,6.46-10.28ZM817.59,381.95l3.81,2.39-6.46,10.28-3.81-2.39,6.46-10.28Z"/>
        <path class="cls-1" d="M783.86,463.05l3.4,2.94-7.94,9.19-3.4-2.94,7.94-9.19ZM785,447.99l3.4,2.94-7.94,9.19-3.4-2.94,7.94-9.19ZM787.26,465.99l3.4,2.94-7.94,9.19-3.4-2.94,7.94-9.19ZM788.4,450.93l3.4,2.94-7.94,9.19-3.4-2.94,7.94-9.19ZM791.8,453.87l3.4,2.94-7.94,9.19-3.4-2.94,7.94-9.19ZM795.2,456.8l3.4,2.94-7.94,9.19-3.4-2.94,7.94-9.19ZM796.34,441.74l3.4,2.94-7.94,9.19-3.4-2.94,7.94-9.19ZM798.6,459.74l3.4,2.94-7.94,9.19-3.4-2.94,7.94-9.19ZM799.74,444.68l3.4,2.94-7.94,9.19-3.4-2.94,7.94-9.19ZM802,462.68l3.4,2.94-7.94,9.19-3.4-2.94,7.94-9.19ZM804.28,432.55l3.4,2.94-7.94,9.19-3.4-2.94,7.94-9.19ZM807.68,435.49l3.4,2.94-7.94,9.19-3.4-2.94,7.94-9.19ZM809.94,453.49l3.4,2.94-7.94,9.19-3.4-2.94,7.94-9.19ZM812.22,423.37l3.4,2.94-7.94,9.19-3.4-2.94,7.94-9.19ZM813.33,456.43l3.4,2.94-7.94,9.19-3.4-2.94,7.94-9.19ZM815.62,426.31l3.4,2.94-7.94,9.19-3.4-2.94,7.94-9.19ZM817.88,444.31l3.4,2.94-7.94,9.19-3.4-2.94,7.94-9.19ZM820.16,414.18l3.4,2.94-7.94,9.19-3.4-2.94,7.94-9.19ZM821.28,447.24l3.4,2.94-7.94,9.19-3.4-2.94,7.94-9.19ZM823.56,417.12l3.4,2.94-7.94,9.19-3.4-2.94,7.94-9.19ZM825.82,435.12l3.4,2.94-7.94,9.19-3.4-2.94,7.94-9.19ZM829.21,438.06l3.4,2.94-7.94,9.19-3.4-2.94,7.94-9.19ZM831.5,407.93l3.4,2.94-7.94,9.19-3.4-2.94,7.94-9.19ZM833.76,425.93l3.4,2.94-7.94,9.19-3.4-2.94,7.94-9.19ZM837.16,428.87l3.4,2.94-7.94,9.19-3.4-2.94,7.94-9.19ZM838.3,413.81l3.4,2.94-7.94,9.19-3.4-2.94,7.94-9.19ZM841.7,416.75l3.4,2.94-7.94,9.19-3.4-2.94,7.94-9.19ZM842.84,401.68l3.4,2.94-7.94,9.19-3.4-2.94,7.94-9.19ZM845.1,419.68l3.4,2.94-7.94,9.19-3.4-2.94,7.94-9.19ZM846.24,404.62l3.4,2.94-7.94,9.19-3.4-2.94,7.94-9.19ZM848.5,422.62l3.4,2.94-7.94,9.19-3.4-2.94,7.94-9.19ZM849.64,407.56l3.4,2.94-7.94,9.19-3.4-2.94,7.94-9.19Z"/>
        <path class="cls-1" d="M812.25,490.56l2.85,3.48-9.4,7.69-2.84-3.48,9.4-7.69ZM815.1,494.04l2.84,3.48-9.4,7.69-2.85-3.48,9.4-7.69ZM815.96,475.92l2.84,3.48-9.4,7.69-2.85-3.48,9.4-7.69ZM818.81,479.4l2.84,3.48-9.4,7.69-2.84-3.48,9.4-7.69ZM821.65,482.87l2.85,3.48-9.4,7.69-2.85-3.48,9.4-7.69ZM823.63,504.47l2.84,3.48-9.4,7.69-2.85-3.48,9.4-7.69ZM824.5,486.35l2.84,3.48-9.4,7.69-2.84-3.48,9.4-7.69ZM826.48,507.95l2.85,3.48-9.4,7.69-2.84-3.48,9.4-7.69ZM827.34,489.83l2.85,3.48-9.4,7.69-2.84-3.48,9.4-7.69ZM828.2,471.71l2.85,3.48-9.4,7.69-2.84-3.48,9.4-7.69ZM830.19,493.31l2.84,3.48-9.4,7.69-2.85-3.48,9.4-7.69ZM831.05,475.18l2.84,3.48-9.4,7.69-2.85-3.48,9.4-7.69ZM833.03,496.78l2.85,3.48-9.4,7.69-2.84-3.48,9.4-7.69ZM835.88,500.26l2.84,3.48-9.4,7.69-2.85-3.48,9.4-7.69ZM837.6,464.02l2.84,3.48-9.4,7.69-2.85-3.48,9.4-7.69ZM838.72,503.74l2.85,3.48-9.4,7.69-2.84-3.48,9.4-7.69ZM839.58,485.62l2.85,3.48-9.4,7.69-2.84-3.48,9.4-7.69ZM840.45,467.49l2.85,3.48-9.4,7.69-2.84-3.48,9.4-7.69ZM842.43,489.09l2.84,3.48-9.4,7.69-2.85-3.48,9.4-7.69ZM847,456.33l2.85,3.48-9.4,7.69-2.84-3.48,9.4-7.69ZM848.98,477.93l2.84,3.48-9.4,7.69-2.85-3.48,9.4-7.69ZM849.85,459.81l2.84,3.48-9.4,7.69-2.85-3.48,9.4-7.69ZM851.83,481.4l2.84,3.48-9.4,7.69-2.84-3.48,9.4-7.69ZM856.4,448.64l2.84,3.48-9.4,7.69-2.85-3.48,9.4-7.69ZM858.38,470.24l2.84,3.48-9.4,7.69-2.84-3.48,9.4-7.69ZM859.24,452.12l2.84,3.48-9.4,7.69-2.84-3.48,9.4-7.69ZM860.11,433.99l2.84,3.48-9.4,7.69-2.84-3.48,9.4-7.69ZM861.23,473.71l2.85,3.48-9.4,7.69-2.84-3.48,9.4-7.69ZM862.95,437.47l2.85,3.48-9.4,7.69-2.85-3.48,9.4-7.69ZM865.8,440.95l2.84,3.48-9.4,7.69-2.84-3.48,9.4-7.69ZM867.78,462.55l2.85,3.48-9.4,7.69-2.84-3.48,9.4-7.69ZM868.64,444.43l2.85,3.48-9.4,7.69-2.84-3.48,9.4-7.69ZM870.62,466.02l2.84,3.48-9.4,7.69-2.85-3.48,9.4-7.69ZM872.35,429.78l2.84,3.48-9.4,7.69-2.85-3.48,9.4-7.69ZM874.33,451.38l2.85,3.48-9.4,7.69-2.84-3.48,9.4-7.69ZM875.19,433.26l2.85,3.48-9.4,7.69-2.84-3.48,9.4-7.69ZM877.18,454.86l2.84,3.48-9.4,7.69-2.85-3.48,9.4-7.69ZM880.02,458.33l2.84,3.48-9.4,7.69-2.84-3.48,9.4-7.69ZM882.87,461.81l2.85,3.48-9.4,7.69-2.85-3.48,9.4-7.69ZM886.57,447.17l2.84,3.48-9.4,7.69-2.84-3.48,9.4-7.69ZM889.42,450.65l2.85,3.48-9.4,7.69-2.84-3.48,9.4-7.69Z"/>
        <path class="cls-1" d="M803.73,540.35l2.2,3.92-10.58,5.96-2.2-3.92,10.58-5.96ZM808.14,548.18l2.2,3.92-10.58,5.96-2.2-3.92,10.58-5.96ZM810.34,552.1l2.2,3.92-10.58,5.96-2.2-3.92,10.58-5.96ZM816.52,538.31l2.2,3.92-10.58,5.96-2.2-3.92,10.58-5.96ZM818.72,542.23l2.2,3.92-10.58,5.96-2.2-3.92,10.58-5.96ZM823.13,550.06l2.2,3.92-10.58,5.96-2.2-3.92,10.58-5.96ZM833.71,544.1l2.2,3.92-10.58,5.96-2.2-3.92,10.58-5.96ZM835.47,522.48l2.2,3.92-10.58,5.96-2.2-3.92,10.58-5.96ZM835.91,548.01l2.2,3.92-10.58,5.96-2.2-3.92,10.58-5.96ZM837.68,526.4l2.2,3.92-10.58,5.96-2.2-3.92,10.58-5.96ZM841.65,508.69l2.2,3.92-10.58,5.96-2.2-3.92,10.58-5.96ZM843.85,512.61l2.2,3.92-10.58,5.96-2.2-3.92,10.58-5.96ZM844.29,538.14l2.2,3.92-10.58,5.96-2.2-3.92,10.58-5.96ZM846.06,516.52l2.2,3.92-10.58,5.96-2.2-3.92,10.58-5.96ZM846.5,542.06l2.2,3.92-10.58,5.96-2.2-3.92,10.58-5.96ZM848.26,520.44l2.2,3.92-10.58,5.96-2.2-3.92,10.58-5.96ZM850.46,524.35l2.2,3.92-10.58,5.96-2.2-3.92,10.58-5.96ZM852.67,528.27l2.2,3.92-10.58,5.96-2.2-3.92,10.58-5.96ZM854.43,506.65l2.2,3.92-10.58,5.96-2.2-3.92,10.58-5.96ZM854.87,532.19l2.2,3.92-10.58,5.96-2.2-3.92,10.58-5.96ZM856.64,510.57l2.2,3.92-10.58,5.96-2.2-3.92,10.58-5.96ZM863.25,522.31l2.2,3.92-10.58,5.96-2.2-3.92,10.58-5.96ZM865.01,500.7l2.2,3.92-10.58,5.96-2.2-3.92,10.58-5.96ZM865.45,526.23l2.2,3.92-10.58,5.96-2.2-3.92,10.58-5.96ZM867.22,504.61l2.2,3.92-10.58,5.96-2.2-3.92,10.58-5.96ZM873.83,516.36l2.2,3.92-10.58,5.96-2.2-3.92,10.58-5.96ZM875.6,494.74l2.2,3.92-10.58,5.96-2.2-3.92,10.58-5.96ZM876.04,520.27l2.2,3.92-10.58,5.96-2.2-3.92,10.58-5.96ZM877.8,498.65l2.2,3.92-10.58,5.96-2.2-3.92,10.58-5.96ZM884.41,510.4l2.2,3.92-10.58,5.96-2.2-3.92,10.58-5.96ZM886.18,488.78l2.2,3.92-10.58,5.96-2.2-3.92,10.58-5.96ZM886.62,514.31l2.2,3.92-10.58,5.96-2.2-3.92,10.58-5.96ZM888.38,492.7l2.2,3.92-10.58,5.96-2.2-3.92,10.58-5.96ZM894.99,504.44l2.2,3.92-10.58,5.96-2.2-3.92,10.58-5.96ZM897.2,508.36l2.2,3.92-10.58,5.96-2.2-3.92,10.58-5.96ZM898.96,486.74l2.2,3.92-10.58,5.96-2.2-3.92,10.58-5.96ZM903.37,494.57l2.2,3.92-10.58,5.96-2.2-3.92,10.58-5.96ZM905.58,498.49l2.2,3.92-10.58,5.96-2.2-3.92,10.58-5.96ZM907.78,502.4l2.2,3.92-10.58,5.96-2.2-3.92,10.58-5.96ZM909.98,506.32l2.2,3.92-10.58,5.96-2.2-3.92,10.58-5.96ZM911.75,484.7l2.2,3.92-10.58,5.96-2.2-3.92,10.58-5.96ZM913.95,488.61l2.2,3.92-10.58,5.96-2.2-3.92,10.58-5.96ZM916.16,492.53l2.2,3.92-10.58,5.96-2.2-3.92,10.58-5.96Z"/>
        <path class="cls-1" d="M819.03,571.74l1.55,4.22-11.4,4.19-1.55-4.22,11.4-4.19ZM830.42,567.54l1.55,4.22-11.4,4.19-1.55-4.22,11.39-4.19ZM831.97,571.76l1.55,4.22-11.4,4.19-1.55-4.22,11.4-4.19ZM843.37,567.56l1.55,4.22-11.4,4.19-1.55-4.22,11.39-4.19ZM844.92,571.78l1.55,4.22-11.4,4.19-1.55-4.22,11.4-4.19ZM850.11,550.72l1.55,4.22-11.4,4.19-1.55-4.22,11.39-4.19ZM851.66,554.94l1.55,4.22-11.4,4.19-1.55-4.22,11.4-4.19ZM856.32,567.58l1.55,4.22-11.4,4.19-1.55-4.22,11.4-4.19ZM857.87,571.8l1.55,4.22-11.4,4.19-1.55-4.22,11.4-4.19ZM859.95,542.31l1.55,4.22-11.4,4.19-1.55-4.22,11.4-4.19ZM861.5,546.52l1.55,4.22-11.4,4.19-1.55-4.22,11.4-4.19ZM863.05,550.74l1.55,4.22-11.4,4.19-1.55-4.22,11.4-4.19ZM864.61,554.96l1.55,4.22-11.4,4.19-1.55-4.22,11.4-4.19ZM867.71,563.39l1.55,4.22-11.4,4.19-1.55-4.22,11.39-4.19ZM869.26,567.61l1.55,4.22-11.4,4.19-1.55-4.22,11.4-4.19ZM872.9,542.33l1.55,4.22-11.39,4.19-1.55-4.22,11.4-4.19ZM874.45,546.55l1.55,4.22-11.4,4.19-1.55-4.22,11.39-4.19ZM879.11,559.2l1.55,4.22-11.39,4.19-1.55-4.22,11.4-4.19ZM880.66,563.41l1.55,4.22-11.4,4.19-1.55-4.22,11.39-4.19ZM884.29,538.14l1.55,4.22-11.4,4.19-1.55-4.22,11.4-4.19ZM885.84,542.35l1.55,4.22-11.39,4.19-1.55-4.22,11.4-4.19ZM890.5,555l1.55,4.22-11.4,4.19-1.55-4.22,11.4-4.19ZM892.05,559.22l1.55,4.22-11.4,4.19-1.55-4.22,11.4-4.19ZM895.69,533.94l1.55,4.22-11.4,4.19-1.55-4.22,11.4-4.19ZM897.24,538.16l1.55,4.22-11.4,4.19-1.55-4.22,11.4-4.19ZM901.9,550.81l1.55,4.22-11.4,4.19-1.55-4.22,11.4-4.19ZM903.45,555.02l1.55,4.22-11.39,4.19-1.55-4.22,11.4-4.19ZM907.08,529.75l1.55,4.22-11.4,4.19-1.55-4.22,11.39-4.19ZM908.64,533.96l1.55,4.22-11.4,4.19-1.55-4.22,11.4-4.19ZM913.29,546.61l1.55,4.22-11.4,4.19-1.55-4.22,11.4-4.19ZM914.84,550.83l1.55,4.22-11.4,4.19-1.55-4.22,11.4-4.19ZM918.48,525.55l1.55,4.22-11.4,4.19-1.55-4.22,11.4-4.19ZM920.03,529.77l1.55,4.22-11.4,4.19-1.55-4.22,11.4-4.19ZM921.58,533.98l1.55,4.22-11.4,4.19-1.55-4.22,11.4-4.19ZM924.69,542.42l1.55,4.22-11.4,4.19-1.55-4.22,11.39-4.19ZM926.24,546.63l1.55,4.22-11.4,4.19-1.55-4.22,11.4-4.19ZM927.79,550.85l1.55,4.22-11.39,4.19-1.55-4.22,11.4-4.19ZM929.87,521.36l1.55,4.22-11.39,4.19-1.55-4.22,11.4-4.19ZM931.43,525.57l1.55,4.22-11.4,4.19-1.55-4.22,11.39-4.19ZM934.53,534.01l1.55,4.22-11.4,4.19-1.55-4.22,11.4-4.19ZM936.08,538.22l1.55,4.22-11.4,4.19-1.55-4.22,11.4-4.19ZM941.27,517.16l1.55,4.22-11.4,4.19-1.55-4.22,11.4-4.19ZM942.82,521.38l1.55,4.22-11.39,4.19-1.55-4.22,11.4-4.19ZM952.67,512.97l1.55,4.22-11.4,4.19-1.55-4.22,11.4-4.19ZM954.22,517.18l1.55,4.22-11.4,4.19-1.55-4.22,11.4-4.19ZM964.06,508.77l1.55,4.22-11.4,4.19-1.55-4.22,11.39-4.19ZM965.61,512.99l1.55,4.22-11.4,4.19-1.55-4.22,11.4-4.19ZM977.01,508.79l1.55,4.22-11.4,4.19-1.55-4.22,11.4-4.19Z"/>
        <path class="cls-1" d="M865.64,604.4l.41,4.47-12.09,1.12-.41-4.47,12.09-1.12ZM866.88,617.82l.41,4.47-12.09,1.12-.41-4.47,12.09-1.12ZM867.29,622.29l.41,4.47-12.09,1.12-.41-4.47,12.09-1.12ZM878.14,607.75l.41,4.47-12.09,1.12-.41-4.47,12.09-1.12ZM878.55,612.23l.41,4.47-12.09,1.12-.41-4.47,12.09-1.12ZM878.97,616.7l.41,4.47-12.09,1.12-.41-4.47,12.09-1.12ZM879.38,621.17l.41,4.47-12.09,1.12-.41-4.47,12.09-1.12ZM879.79,625.65l.41,4.47-12.09,1.12-.41-4.47,12.09-1.12ZM890.65,611.11l.41,4.47-12.09,1.12-.41-4.47,12.09-1.12ZM891.88,624.53l.41,4.47-12.09,1.12-.41-4.47,12.09-1.12ZM892.3,629.01l.41,4.47-12.09,1.12-.41-4.47,12.09-1.12ZM902.32,605.52l.41,4.47-12.09,1.12-.41-4.47,12.09-1.12ZM902.74,609.99l.41,4.47-12.09,1.12-.41-4.47,12.09-1.12ZM903.15,614.47l.41,4.47-12.09,1.12-.41-4.47,12.09-1.12ZM903.98,623.42l.41,4.47-12.09,1.12-.41-4.47,12.09-1.12ZM904.39,627.89l.41,4.47-12.09,1.12-.41-4.47,12.09-1.12ZM914.42,604.4l.41,4.47-12.09,1.12-.41-4.47,12.09-1.12ZM914.83,608.88l.41,4.47-12.09,1.12-.41-4.47,12.09-1.12ZM915.65,617.83l.41,4.47-12.09,1.12-.41-4.47,12.09-1.12ZM916.07,622.3l.41,4.47-12.09,1.12-.41-4.47,12.09-1.12ZM926.51,603.29l.41,4.47-12.09,1.12-.41-4.47,12.09-1.12ZM926.92,607.76l.41,4.47-12.09,1.12-.41-4.47,12.09-1.12ZM928.57,625.66l.41,4.47-12.09,1.12-.41-4.47,12.09-1.12ZM939.01,606.65l.41,4.47-12.09,1.12-.41-4.47,12.09-1.12ZM939.42,611.12l.41,4.47-12.09,1.12-.41-4.47,12.09-1.12ZM939.84,615.59l.41,4.47-12.09,1.12-.41-4.47,12.09-1.12ZM940.25,620.07l.41,4.47-12.09,1.12-.41-4.47,12.09-1.12ZM951.52,610l.41,4.47-12.09,1.12-.41-4.47,12.09-1.12ZM951.93,614.48l.41,4.47-12.09,1.12-.41-4.47,12.09-1.12ZM952.75,623.42l.41,4.47-12.09,1.12-.41-4.47,12.09-1.12ZM964.85,622.31l.41,4.47-12.09,1.12-.41-4.47,12.09-1.12Z"/>
        <path class="cls-1" d="M831.38,648.04l-.27,4.48-12.12-.74.27-4.48,12.12.74ZM843.23,653.26l-.27,4.48-12.12-.74.27-4.48,12.12.74ZM843.5,648.78l-.27,4.48-12.12-.74.27-4.48,12.12.74ZM855.07,658.49l-.27,4.48-12.12-.74.27-4.48,12.12.74ZM855.35,654l-.27,4.49-12.12-.74.27-4.48,12.12.74ZM866.92,663.71l-.27,4.48-12.12-.74.27-4.48,12.12.74ZM867.19,659.22l-.27,4.48-12.12-.74.27-4.48,12.12.74ZM868.01,645.77l-.27,4.48-12.12-.74.27-4.48,12.12.74ZM868.29,641.29l-.27,4.48-12.12-.74.27-4.48,12.12.74ZM879.04,664.45l-.27,4.48-12.12-.74.27-4.48,12.12.74ZM879.31,659.96l-.27,4.48-12.12-.74.27-4.48,12.12.74ZM879.86,650.99l-.27,4.48-12.12-.74.27-4.48,12.12.74ZM880.13,646.51l-.27,4.48-12.12-.74.27-4.48,12.12.74ZM880.41,642.03l-.27,4.48-12.12-.74.27-4.48,12.12.74ZM880.68,637.54l-.27,4.48-12.12-.74.27-4.49,12.12.74ZM891.16,665.19l-.27,4.48-12.12-.74.27-4.48,12.12.74ZM891.43,660.7l-.27,4.48-12.12-.74.27-4.48,12.12.74ZM892.25,647.25l-.27,4.48-12.12-.74.27-4.48,12.12.74ZM892.53,642.76l-.27,4.48-12.12-.74.27-4.48,12.12.74ZM903.28,665.93l-.27,4.48-12.12-.74.27-4.48,12.12.74ZM903.55,661.44l-.27,4.48-12.12-.74.27-4.48,12.12.74ZM904.37,647.99l-.27,4.48-12.12-.74.27-4.48,12.12.74ZM904.65,643.5l-.27,4.48-12.12-.74.27-4.48,12.12.74ZM915.4,666.67l-.27,4.48-12.12-.74.27-4.48,12.12.74ZM915.67,662.18l-.27,4.49-12.12-.74.27-4.48,12.12.74ZM916.5,648.73l-.27,4.48-12.12-.74.27-4.48,12.12.74ZM916.77,644.24l-.27,4.48-12.12-.74.27-4.48,12.12.74ZM927.52,667.41l-.27,4.48-12.12-.74.27-4.48,12.12.74ZM927.79,662.92l-.27,4.48-12.12-.74.27-4.49,12.12.74ZM928.62,649.47l-.27,4.48-12.12-.74.27-4.48,12.12.74ZM928.89,644.98l-.27,4.48-12.12-.74.27-4.48,12.12.74ZM939.37,672.63l-.27,4.48-12.12-.74.27-4.48,12.12.74ZM939.64,668.15l-.27,4.48-12.12-.74.27-4.48,12.12.74ZM939.92,663.66l-.27,4.48-12.12-.74.27-4.48,12.12.74ZM940.46,654.69l-.27,4.48-12.12-.74.27-4.49,12.12.74ZM940.74,650.21l-.27,4.49-12.12-.74.27-4.48,12.12.74ZM941.01,645.72l-.27,4.48-12.12-.74.27-4.48,12.12.74ZM952.04,664.4l-.27,4.48-12.12-.74.27-4.48,12.12.74ZM952.31,659.92l-.27,4.48-12.12-.74.27-4.49,12.12.74ZM952.86,650.95l-.27,4.49-12.12-.74.27-4.49,12.12.74ZM953.13,646.46l-.27,4.48-12.12-.74.27-4.48,12.12.74ZM964.98,651.69l-.27,4.48-12.12-.74.27-4.49,12.12.74ZM965.25,647.2l-.27,4.49-12.12-.74.27-4.48,12.12.74ZM977.1,652.42l-.27,4.48-12.12-.74.27-4.48,12.12.74ZM977.37,647.94l-.27,4.48-12.12-.74.27-4.49,12.12.74ZM989.22,653.16l-.27,4.48-12.12-.74.27-4.48,12.12.74ZM989.49,648.68l-.27,4.48-12.12-.74.27-4.48,12.12.74ZM1001.34,653.9l-.27,4.48-12.12-.74.27-4.48,12.12.74Z"/>
        <path class="cls-1" d="M860.28,699.94l-.96,4.39-11.86-2.59.96-4.39,11.86,2.59ZM861.24,695.55l-.96,4.39-11.86-2.59.96-4.39,11.86,2.59ZM863.16,686.77l-.96,4.39-11.86-2.59.96-4.39,11.86,2.59ZM864.12,682.38l-.96,4.39-11.86-2.59.96-4.39,11.86,2.59ZM871.18,706.92l-.96,4.39-11.86-2.59.96-4.39,11.86,2.59ZM872.14,702.53l-.96,4.39-11.86-2.59.96-4.39,11.86,2.59ZM873.1,698.14l-.96,4.39-11.86-2.59.96-4.39,11.86,2.59ZM874.06,693.75l-.96,4.39-11.86-2.59.96-4.39,11.86,2.59ZM875.02,689.37l-.96,4.39-11.86-2.59.96-4.39,11.86,2.59ZM875.98,684.98l-.96,4.39-11.86-2.59.96-4.39,11.86,2.59ZM876.94,680.59l-.96,4.39-11.86-2.59.96-4.39,11.86,2.59ZM877.9,676.2l-.96,4.39-11.86-2.59.96-4.39,11.86,2.59ZM884,705.13l-.96,4.39-11.86-2.59.96-4.39,11.86,2.59ZM884.96,700.74l-.96,4.39-11.86-2.59.96-4.39,11.86,2.59ZM887.84,687.57l-.96,4.39-11.86-2.59.96-4.39,11.86,2.59ZM888.8,683.18l-.96,4.39-11.86-2.59.96-4.39,11.86,2.59ZM895.87,707.72l-.96,4.39-11.86-2.59.96-4.39,11.86,2.59ZM896.83,703.33l-.96,4.39-11.86-2.59.96-4.39,11.86,2.59ZM899.7,690.16l-.96,4.39-11.86-2.59.96-4.39,11.86,2.59ZM900.66,685.77l-.96,4.39-11.86-2.59.96-4.39,11.86,2.59ZM907.73,710.31l-.96,4.39-11.86-2.59.96-4.39,11.86,2.59ZM908.69,705.92l-.96,4.39-11.86-2.59.96-4.39,11.86,2.59ZM911.57,692.76l-.96,4.39-11.86-2.59.96-4.39,11.86,2.59ZM912.53,688.37l-.96,4.39-11.86-2.59.96-4.39,11.86,2.59ZM919.59,712.91l-.96,4.39-11.86-2.59.96-4.39,11.86,2.59ZM920.55,708.52l-.96,4.39-11.86-2.59.96-4.39,11.86,2.59ZM923.43,695.35l-.96,4.39-11.86-2.59.96-4.39,11.86,2.59ZM924.39,690.96l-.96,4.39-11.86-2.59.96-4.39,11.86,2.59ZM930.49,719.89l-.96,4.39-11.86-2.59.96-4.39,11.86,2.59ZM931.45,715.5l-.96,4.39-11.86-2.59.96-4.39,11.86,2.59ZM932.41,711.11l-.96,4.39-11.86-2.59.96-4.39,11.86,2.59ZM935.29,697.94l-.96,4.39-11.86-2.59.96-4.39,11.86,2.59ZM944.28,713.71l-.96,4.39-11.86-2.59.96-4.39,11.86,2.59ZM945.24,709.32l-.96,4.39-11.86-2.59.96-4.39,11.86,2.59ZM946.2,704.93l-.96,4.39-11.86-2.59.96-4.39,11.86,2.59Z"/>
        <path class="cls-1" d="M852.7,722.16l-1.62,4.19-11.33-4.38,1.62-4.19,11.33,4.38ZM854.32,717.97l-1.62,4.19-11.33-4.38,1.62-4.19,11.33,4.38ZM860.79,734.92l-1.62,4.19-11.33-4.38,1.62-4.19,11.33,4.38ZM862.41,730.73l-1.62,4.19-11.33-4.38,1.62-4.19,11.33,4.38ZM864.03,726.54l-1.62,4.19-11.33-4.38,1.62-4.19,11.33,4.38ZM865.65,722.34l-1.62,4.19-11.33-4.38,1.62-4.19,11.33,4.38ZM867.27,718.15l-1.62,4.19-11.33-4.38,1.62-4.19,11.33,4.38ZM868.89,713.96l-1.62,4.19-11.33-4.38,1.62-4.19,11.33,4.38ZM870.49,743.49l-1.62,4.19-11.33-4.38,1.62-4.19,11.33,4.38ZM872.11,739.29l-1.62,4.19-11.33-4.38,1.62-4.19,11.33,4.38ZM876.97,726.72l-1.62,4.19-11.33-4.38,1.62-4.19,11.33,4.38ZM878.59,722.53l-1.62,4.19-11.33-4.38,1.62-4.19,11.33,4.38ZM881.82,747.86l-1.62,4.19-11.33-4.38,1.62-4.19,11.33,4.38ZM883.44,743.67l-1.62,4.19-11.33-4.38,1.62-4.19,11.33,4.38ZM888.3,731.1l-1.62,4.19-11.33-4.38,1.62-4.19,11.33,4.38ZM889.92,726.91l-1.62,4.19-11.33-4.38,1.62-4.19,11.33,4.38ZM893.14,752.24l-1.62,4.19-11.33-4.38,1.62-4.19,11.33,4.38ZM894.76,748.05l-1.62,4.19-11.33-4.38,1.62-4.19,11.33,4.38ZM899.62,735.48l-1.62,4.19-11.33-4.38,1.62-4.19,11.33,4.38ZM901.25,731.29l-1.62,4.19-11.33-4.38,1.62-4.19,11.33,4.38ZM904.47,756.62l-1.62,4.19-11.33-4.38,1.62-4.19,11.33,4.38ZM906.09,752.43l-1.62,4.19-11.33-4.38,1.62-4.19,11.33,4.38ZM910.95,739.86l-1.62,4.19-11.33-4.38,1.62-4.19,11.33,4.38ZM912.57,735.67l-1.62,4.19-11.33-4.38,1.62-4.19,11.33,4.38ZM915.8,761l-1.62,4.19-11.33-4.38,1.62-4.19,11.33,4.38ZM917.42,756.81l-1.62,4.19-11.33-4.38,1.62-4.19,11.33,4.38ZM922.28,744.24l-1.62,4.19-11.33-4.38,1.62-4.19,11.33,4.38ZM923.9,740.04l-1.62,4.19-11.33-4.38,1.62-4.19,11.33,4.38ZM927.12,765.38l-1.62,4.19-11.33-4.38,1.62-4.19,11.33,4.38ZM928.74,761.19l-1.62,4.19-11.33-4.38,1.62-4.19,11.33,4.38ZM930.36,757l-1.62,4.19-11.33-4.38,1.62-4.19,11.33,4.38ZM933.6,748.61l-1.62,4.19-11.33-4.38,1.62-4.19,11.33,4.38ZM940.07,765.56l-1.62,4.19-11.33-4.38,1.62-4.19,11.33,4.38ZM941.69,761.37l-1.62,4.19-11.33-4.38,1.62-4.19,11.33,4.38ZM943.31,757.18l-1.62,4.19-11.33-4.38,1.62-4.19,11.33,4.38ZM953.01,765.75l-1.62,4.19-11.33-4.38,1.62-4.19,11.33,4.38ZM954.63,761.56l-1.62,4.19-11.33-4.38,1.62-4.19,11.33,4.38ZM956.25,757.37l-1.62,4.19-11.33-4.38,1.62-4.19,11.33,4.38ZM965.96,765.94l-1.62,4.19-11.33-4.38,1.62-4.19,11.33,4.38ZM967.58,761.75l-1.62,4.19-11.33-4.38,1.62-4.19,11.33,4.38ZM969.2,757.56l-1.62,4.19-11.33-4.38,1.62-4.19,11.33,4.38ZM980.53,761.94l-1.62,4.19-11.33-4.38,1.62-4.19,11.33,4.38Z"/>
        <path class="cls-1" d="M838.87,751.51l-2.24,3.89-10.53-6.05,2.24-3.89,10.53,6.05ZM841.11,747.62l-2.24,3.9-10.53-6.05,2.24-3.89,10.53,6.05ZM844.92,765.36l-2.24,3.89-10.53-6.05,2.24-3.89,10.53,6.05ZM847.15,761.46l-2.24,3.89-10.53-6.05,2.24-3.89,10.53,6.05ZM849.39,757.57l-2.24,3.9-10.53-6.05,2.24-3.89,10.53,6.05ZM851.63,753.67l-2.24,3.89-10.53-6.05,2.24-3.9,10.53,6.05ZM853.2,775.3l-2.24,3.89-10.53-6.05,2.24-3.89,10.53,6.05ZM853.87,749.78l-2.24,3.89-10.53-6.05,2.24-3.89,10.53,6.05ZM855.44,771.41l-2.24,3.89-10.53-6.05,2.24-3.89,10.53,6.05ZM856.11,745.88l-2.24,3.89-10.53-6.05,2.24-3.89,10.53,6.05ZM862.16,759.72l-2.24,3.89-10.53-6.05,2.24-3.89,10.53,6.05ZM863.73,781.36l-2.24,3.89-10.53-6.05,2.24-3.89,10.53,6.05ZM864.4,755.83l-2.24,3.89-10.53-6.05,2.24-3.89,10.53,6.05ZM865.97,777.46l-2.24,3.89-10.53-6.05,2.24-3.89,10.53,6.05ZM872.69,765.78l-2.24,3.89-10.53-6.05,2.24-3.89,10.53,6.05ZM874.25,787.41l-2.24,3.89-10.53-6.05,2.24-3.89,10.53,6.05ZM874.93,761.88l-2.24,3.89-10.53-6.05,2.24-3.89,10.53,6.05ZM876.49,783.52l-2.24,3.9-10.53-6.05,2.24-3.89,10.53,6.05ZM883.21,771.83l-2.24,3.89-10.53-6.05,2.24-3.89,10.53,6.05ZM884.78,793.46l-2.24,3.9-10.53-6.05,2.24-3.89,10.53,6.05ZM885.45,767.94l-2.24,3.9-10.53-6.05,2.24-3.89,10.53,6.05ZM887.02,789.57l-2.24,3.89-10.53-6.05,2.24-3.9,10.53,6.05ZM893.07,803.41l-2.24,3.9-10.53-6.05,2.24-3.89,10.53,6.05ZM893.74,777.89l-2.24,3.89-10.53-6.05,2.24-3.89,10.53,6.05ZM895.31,799.52l-2.24,3.89-10.53-6.05,2.24-3.9,10.53,6.05ZM895.98,773.99l-2.24,3.9-10.53-6.05,2.24-3.9,10.53,6.05ZM897.55,795.62l-2.24,3.89-10.53-6.05,2.24-3.89,10.53,6.05ZM899.79,791.73l-2.24,3.89-10.53-6.05,2.24-3.89,10.53,6.05ZM904.27,783.94l-2.24,3.9-10.53-6.05,2.24-3.89,10.53,6.05ZM908.07,801.68l-2.24,3.89-10.53-6.05,2.24-3.89,10.53,6.05ZM910.31,797.78l-2.24,3.89-10.53-6.05,2.24-3.89,10.53,6.05ZM912.55,793.89l-2.24,3.9-10.53-6.05,2.24-3.89,10.53,6.05Z"/>
        <path class="cls-1" d="M806.24,796.21l-2.95,3.39-9.17-7.96,2.95-3.39,9.17,7.96ZM809.19,792.82l-2.95,3.39-9.17-7.96,2.95-3.39,9.17,7.96ZM809.51,810.96l-2.95,3.39-9.17-7.96,2.95-3.39,9.17,7.97ZM812.46,807.56l-2.95,3.39-9.17-7.97,2.95-3.39,9.17,7.96ZM815.4,804.17l-2.95,3.39-9.17-7.96,2.95-3.39,9.17,7.96ZM815.73,822.31l-2.95,3.39-9.17-7.96,2.95-3.39,9.17,7.96ZM818.35,800.78l-2.95,3.39-9.17-7.96,2.95-3.39,9.17,7.97ZM818.68,818.92l-2.95,3.39-9.17-7.96,2.95-3.39,9.17,7.96ZM820.97,779.25l-2.95,3.39-9.17-7.96,2.95-3.39,9.17,7.96ZM821.3,797.39l-2.95,3.39-9.17-7.97,2.95-3.39,9.17,7.96ZM823.92,775.86l-2.95,3.39-9.17-7.96,2.95-3.39,9.17,7.96ZM824.89,830.28l-2.95,3.39-9.17-7.96,2.95-3.39,9.17,7.96ZM827.19,790.61l-2.95,3.39-9.17-7.96,2.95-3.39,9.17,7.97ZM827.52,808.75l-2.95,3.39-9.17-7.96,2.95-3.39,9.17,7.96ZM827.84,826.89l-2.95,3.39-9.17-7.96,2.95-3.39,9.17,7.96ZM830.14,787.22l-2.95,3.39-9.17-7.97,2.95-3.39,9.17,7.96ZM830.46,805.36l-2.95,3.39-9.17-7.96,2.95-3.39,9.17,7.96ZM833.09,783.83l-2.95,3.39-9.17-7.96,2.95-3.39,9.17,7.96ZM834.06,838.24l-2.95,3.39-9.17-7.96,2.95-3.39,9.17,7.97ZM836.03,780.43l-2.95,3.39-9.17-7.96,2.95-3.39,9.17,7.97ZM836.68,816.71l-2.95,3.39-9.17-7.97,2.95-3.39,9.17,7.96ZM837.01,834.85l-2.95,3.39-9.17-7.97,2.95-3.39,9.17,7.96ZM839.31,795.18l-2.95,3.39-9.17-7.96,2.95-3.39,9.17,7.96ZM839.63,813.32l-2.95,3.39-9.17-7.96,2.95-3.39,9.17,7.96ZM842.25,791.79l-2.95,3.39-9.17-7.96,2.95-3.39,9.17,7.96ZM843.23,846.21l-2.95,3.39-9.17-7.96,2.95-3.39,9.17,7.96ZM845.85,824.68l-2.95,3.39-9.17-7.96,2.95-3.39,9.17,7.96ZM846.17,842.82l-2.95,3.39-9.17-7.96,2.95-3.39,9.17,7.96ZM848.47,803.15l-2.95,3.39-9.17-7.96,2.95-3.39,9.17,7.96ZM848.79,821.29l-2.95,3.39-9.17-7.96,2.95-3.39,9.17,7.96ZM849.44,857.56l-2.95,3.39-9.17-7.96,2.95-3.39,9.17,7.97ZM851.42,799.76l-2.95,3.39-9.17-7.96,2.95-3.39,9.17,7.97ZM852.39,854.17l-2.95,3.39-9.17-7.97,2.95-3.39,9.17,7.96ZM855.01,832.64l-2.95,3.39-9.17-7.96,2.95-3.39,9.17,7.96ZM855.34,850.78l-2.95,3.39-9.17-7.96,2.95-3.39,9.17,7.96ZM857.64,811.11l-2.95,3.39-9.17-7.96,2.95-3.39,9.17,7.96ZM857.96,829.25l-2.95,3.39-9.17-7.96,2.95-3.39,9.17,7.97ZM858.29,847.39l-2.95,3.39-9.17-7.96,2.95-3.39,9.17,7.97ZM860.58,807.72l-2.95,3.39-9.17-7.96,2.95-3.39,9.17,7.96ZM864.18,840.61l-2.95,3.39-9.17-7.96,2.95-3.39,9.17,7.96ZM864.5,858.75l-2.95,3.39-9.17-7.96,2.95-3.39,9.17,7.96ZM866.8,819.08l-2.95,3.39-9.17-7.96,2.95-3.39,9.17,7.97ZM867.13,837.22l-2.95,3.39-9.17-7.96,2.95-3.39,9.17,7.96ZM867.45,855.35l-2.95,3.39-9.17-7.96,2.95-3.39,9.17,7.96ZM869.75,815.69l-2.95,3.39-9.17-7.97,2.95-3.39,9.17,7.96ZM870.07,833.82l-2.95,3.39-9.17-7.96,2.95-3.39,9.17,7.96ZM870.4,851.96l-2.95,3.39-9.17-7.96,2.95-3.39,9.17,7.96ZM875.97,827.04l-2.95,3.39-9.17-7.96,2.95-3.39,9.17,7.96ZM876.29,845.18l-2.95,3.39-9.17-7.96,2.95-3.39,9.17,7.96ZM878.92,823.65l-2.95,3.39-9.17-7.96,2.95-3.39,9.17,7.96ZM879.24,841.79l-2.95,3.39-9.17-7.96,2.95-3.39,9.17,7.96ZM881.86,820.26l-2.95,3.39-9.17-7.96,2.95-3.39,9.17,7.96ZM882.19,838.4l-2.95,3.39-9.17-7.96,2.95-3.39,9.17,7.97ZM888.08,831.62l-2.95,3.39-9.17-7.96,2.95-3.39,9.17,7.96ZM891.03,828.22l-2.95,3.39-9.17-7.96,2.95-3.39,9.17,7.97ZM893.97,824.83l-2.95,3.39-9.17-7.97,2.95-3.39,9.17,7.96Z"/>
        <path class="cls-1" d="M777.74,821.68l-3.52,2.79-7.53-9.52,3.52-2.79,7.53,9.52ZM781.27,818.9l-3.52,2.79-7.53-9.52,3.52-2.79,7.53,9.52ZM781.75,834l-3.52,2.79-7.53-9.52,3.52-2.79,7.53,9.52ZM785.28,831.21l-3.52,2.79-7.53-9.52,3.52-2.79,7.53,9.52ZM785.76,846.31l-3.52,2.79-7.53-9.52,3.52-2.79,7.53,9.52ZM788.8,828.42l-3.52,2.79-7.53-9.52,3.52-2.79,7.53,9.52ZM789.29,843.52l-3.52,2.79-7.53-9.52,3.52-2.79,7.53,9.52ZM791.84,810.53l-3.52,2.79-7.53-9.52,3.52-2.79,7.53,9.52ZM792.33,825.63l-3.52,2.79-7.53-9.52,3.52-2.79,7.53,9.52ZM793.3,855.83l-3.52,2.79-7.53-9.52,3.52-2.79,7.53,9.52ZM795.85,822.85l-3.52,2.79-7.53-9.52,3.52-2.79,7.53,9.52ZM796.82,853.04l-3.52,2.79-7.53-9.52,3.52-2.79,7.53,9.52ZM799.86,835.16l-3.52,2.79-7.53-9.52,3.52-2.79,7.53,9.52ZM803.87,847.47l-3.52,2.79-7.53-9.52,3.52-2.79,7.53,9.52ZM804.35,862.57l-3.52,2.79-7.53-9.52,3.52-2.79,7.53,9.52ZM807.39,844.68l-3.52,2.79-7.53-9.52,3.52-2.79,7.53,9.52ZM807.88,859.78l-3.52,2.79-7.53-9.52,3.52-2.79,7.53,9.52ZM808.36,874.88l-3.52,2.79-7.53-9.52,3.52-2.79,7.53,9.52ZM810.92,841.89l-3.52,2.79-7.53-9.52,3.52-2.79,7.53,9.52ZM814.92,854.2l-3.52,2.79-7.53-9.52,3.52-2.79,7.53,9.52ZM818.45,851.42l-3.52,2.79-7.53-9.52,3.52-2.79,7.53,9.52ZM819.42,881.61l-3.52,2.79-7.53-9.52,3.52-2.79,7.53,9.52ZM822.46,863.73l-3.52,2.79-7.53-9.52,3.52-2.79,7.53,9.52ZM822.94,878.83l-3.52,2.79-7.53-9.52,3.52-2.79,7.53,9.52ZM823.43,893.92l-3.52,2.79-7.53-9.52,3.52-2.79,7.53,9.52ZM825.98,860.94l-3.52,2.79-7.53-9.52,3.52-2.79,7.53,9.52ZM826.47,876.04l-3.52,2.79-7.53-9.52,3.52-2.79,7.53,9.52ZM829.99,873.25l-3.52,2.79-7.53-9.52,3.52-2.79,7.53,9.52ZM830.48,888.35l-3.52,2.79-7.53-9.52,3.52-2.79,7.53,9.52ZM830.96,903.45l-3.52,2.79-7.53-9.52,3.52-2.79,7.53,9.52ZM834,885.56l-3.52,2.79-7.53-9.52,3.52-2.79,7.53,9.52Z"/>
        <path class="cls-1" d="M749.59,811.71l-3.81,2.38-6.43-10.3,3.81-2.38,6.43,10.3ZM752.21,824.39l-3.81,2.38-6.43-10.3,3.81-2.38,6.43,10.3ZM758.64,834.69l-3.81,2.38-6.43-10.3,3.81-2.38,6.43,10.3ZM762.46,832.31l-3.81,2.38-6.43-10.3,3.81-2.38,6.43,10.3ZM765.08,844.99l-3.81,2.38-6.43-10.3,3.81-2.38,6.43,10.3ZM768.89,842.61l-3.81,2.38-6.43-10.3,3.81-2.38,6.43,10.3ZM803.67,906.78l-3.81,2.38-6.43-10.3,3.81-2.38,6.43,10.3ZM807.48,904.4l-3.81,2.38-6.43-10.3,3.81-2.38,6.43,10.3ZM810.1,917.08l-3.81,2.38-6.43-10.3,3.81-2.38,6.43,10.3ZM813.92,914.7l-3.81,2.38-6.43-10.3,3.81-2.38,6.43,10.3Z"/>
        <path class="cls-1" d="M715.22,855.3l-4.21,1.57-4.23-11.38,4.21-1.57,4.23,11.38ZM715.24,868.25l-4.21,1.57-4.23-11.38,4.21-1.57,4.23,11.38ZM719.43,853.73l-4.21,1.57-4.23-11.38,4.21-1.57,4.23,11.38ZM719.45,866.68l-4.21,1.57-4.23-11.38,4.21-1.57,4.23,11.38ZM723.67,865.11l-4.21,1.57-4.23-11.38,4.21-1.57,4.23,11.38ZM727.88,863.55l-4.21,1.57-4.23-11.38,4.21-1.57,4.23,11.38ZM727.9,876.49l-4.21,1.57-4.23-11.38,4.21-1.57,4.23,11.38ZM732.09,861.98l-4.21,1.57-4.23-11.38,4.21-1.57,4.23,11.38ZM732.11,874.93l-4.21,1.57-4.23-11.38,4.21-1.57,4.23,11.38ZM732.13,887.88l-4.21,1.57-4.23-11.38,4.21-1.57,4.23,11.38ZM736.34,886.31l-4.21,1.57-4.23-11.38,4.21-1.57,4.23,11.38ZM736.36,899.26l-4.21,1.57-4.23-11.38,4.21-1.57,4.23,11.38ZM740.57,897.69l-4.21,1.57-4.23-11.38,4.21-1.57,4.23,11.38ZM740.59,910.64l-4.21,1.57-4.23-11.38,4.21-1.57,4.23,11.38ZM740.64,936.53l-4.21,1.57-4.23-11.38,4.21-1.57,4.23,11.38ZM744.8,909.07l-4.21,1.57-4.23-11.38,4.21-1.57,4.23,11.38ZM744.83,922.02l-4.21,1.57-4.23-11.38,4.21-1.57,4.23,11.38ZM744.85,934.97l-4.21,1.57-4.23-11.38,4.21-1.57,4.23,11.38ZM749.04,920.46l-4.21,1.57-4.23-11.38,4.21-1.57,4.23,11.38ZM749.06,933.4l-4.21,1.57-4.23-11.38,4.21-1.57,4.23,11.38ZM753.27,931.84l-4.21,1.57-4.23-11.38,4.21-1.57,4.23,11.38ZM753.29,944.78l-4.21,1.57-4.23-11.38,4.21-1.57,4.23,11.38ZM757.48,930.27l-4.21,1.57-4.23-11.38,4.21-1.57,4.23,11.38ZM757.5,943.22l-4.21,1.57-4.23-11.38,4.21-1.57,4.23,11.38ZM757.52,956.17l-4.21,1.57-4.23-11.38,4.21-1.57,4.23,11.38ZM761.73,954.6l-4.21,1.57-4.23-11.38,4.21-1.57,4.23,11.38ZM761.75,967.55l-4.21,1.57-4.23-11.38,4.21-1.57,4.23,11.38Z"/>
        <path class="cls-1" d="M678.23,865.04l-4.39.96-2.61-11.86,4.39-.96,2.61,11.86ZM680.01,852.21l-4.39.96-2.61-11.86,4.39-.96,2.61,11.86ZM680.84,876.9l-4.39.96-2.61-11.86,4.39-.96,2.61,11.86ZM681.79,839.39l-4.39.96-2.61-11.86,4.39-.96,2.61,11.86ZM682.62,864.07l-4.39.96-2.61-11.86,4.39-.96,2.61,11.86ZM683.44,888.76l-4.39.96-2.61-11.86,4.39-.96,2.61,11.86ZM683.57,826.56l-4.39.96-2.61-11.86,4.39-.96,2.61,11.86ZM684.4,851.25l-4.39.96-2.61-11.86,4.39-.96,2.61,11.86ZM685.22,875.93l-4.39.96-2.61-11.86,4.39-.96,2.61,11.86ZM686.05,900.62l-4.39.96-2.61-11.86,4.39-.96,2.61,11.86ZM686.18,838.42l-4.39.96-2.61-11.86,4.39-.96,2.61,11.86ZM687.83,887.79l-4.39.96-2.61-11.86,4.39-.96,2.61,11.86ZM688.66,912.48l-4.39.96-2.61-11.86,4.39-.96,2.61,11.86ZM689.48,937.16l-4.39.96-2.61-11.86,4.39-.96,2.61,11.86ZM690.44,899.65l-4.39.96-2.61-11.86,4.39-.96,2.61,11.86ZM691.26,924.33l-4.39.96-2.61-11.86,4.39-.96,2.61,11.86ZM693.05,911.51l-4.39.96-2.61-11.86,4.39-.96,2.61,11.86ZM693.87,936.2l-4.39.96-2.61-11.86,4.39-.96,2.61,11.86ZM694,874l-4.39.96-2.61-11.86,4.39-.96,2.61,11.86ZM695.65,923.37l-4.39.96-2.61-11.86,4.39-.96,2.61,11.86ZM695.78,861.18l-4.39.96-2.61-11.86,4.39-.96,2.61,11.86ZM698.26,935.23l-4.39.96-2.61-11.86,4.39-.96,2.61,11.86ZM698.39,873.04l-4.39.96-2.61-11.86,4.39-.96,2.61,11.86ZM700.17,860.21l-4.39.96-2.61-11.86,4.39-.96,2.61,11.86ZM700.87,947.09l-4.39.96-2.61-11.86,4.39-.96,2.61,11.86ZM701,884.9l-4.39.96-2.61-11.86,4.39-.96,2.61,11.86ZM702.78,872.07l-4.39.96-2.61-11.86,4.39-.96,2.61,11.86ZM703.6,896.76l-4.39.96-2.61-11.86,4.39-.96,2.61,11.86ZM705.25,946.12l-4.39.96-2.61-11.86,4.39-.96,2.61,11.86ZM705.38,883.93l-4.39.96-2.61-11.86,4.39-.96,2.61,11.86ZM706.21,908.62l-4.39.96-2.61-11.86,4.39-.96,2.61,11.86ZM707.04,933.3l-4.39.96-2.61-11.86,4.39-.96,2.61,11.86ZM707.16,871.11l-4.39.96-2.61-11.86,4.39-.96,2.61,11.86ZM707.99,895.79l-4.39.96-2.61-11.86,4.39-.96,2.61,11.86ZM708.82,920.48l-4.39.96-2.61-11.86,4.39-.96,2.61,11.86ZM710.6,907.65l-4.39.96-2.61-11.86,4.39-.96,2.61,11.86ZM711.42,932.34l-4.39.96-2.61-11.86,4.39-.96,2.61,11.86ZM713.21,919.51l-4.39.96-2.61-11.86,4.39-.96,2.61,11.86ZM714.03,944.2l-4.39.96-2.61-11.86,4.39-.96,2.61,11.86ZM715.81,931.37l-4.39.96-2.61-11.86,4.39-.96,2.61,11.86ZM716.64,956.06l-4.39.96-2.61-11.86,4.39-.96,2.61,11.86ZM718.42,943.23l-4.39.96-2.61-11.86,4.39-.96,2.61,11.86ZM719.25,967.92l-4.39.96-2.61-11.86,4.39-.96,2.61,11.86ZM721.03,955.09l-4.39.96-2.61-11.86,4.39-.96,2.61,11.86ZM721.85,979.78l-4.39.96-2.61-11.86,4.39-.96,2.61,11.86ZM723.63,966.95l-4.39.96-2.61-11.86,4.39-.96,2.61,11.86ZM724.46,991.63l-4.39.96-2.61-11.86,4.39-.96,2.61,11.86ZM726.24,978.81l-4.39.96-2.61-11.86,4.39-.96,2.61,11.86Z"/>
        <path class="cls-1" d="M645.23,928.92l-4.48.29-.78-12.12,4.48-.29.78,12.12ZM646.01,941.04l-4.48.29-.78-12.12,4.48-.29.78,12.12ZM649.71,928.63l-4.48.29-.78-12.12,4.48-.29.78,12.12ZM650.49,940.75l-4.48.29-.78-12.12,4.48-.29.78,12.12ZM651.09,879.87l-4.48.29-.78-12.12,4.48-.29.78,12.12ZM651.27,952.87l-4.48.29-.78-12.12,4.48-.29.78,12.12ZM653.42,916.23l-4.48.29-.78-12.12,4.48-.29.78,12.12ZM654.97,940.46l-4.48.29-.78-12.12,4.48-.29.78,12.12ZM655.57,879.58l-4.48.29-.78-12.12,4.48-.29.78,12.12ZM655.75,952.58l-4.48.29-.78-12.12,4.48-.29.78,12.12ZM657.9,915.94l-4.48.29-.78-12.12,4.48-.29.78,12.12ZM659.28,867.18l-4.48.29-.78-12.12,4.48-.29.78,12.12ZM660.06,879.3l-4.48.29-.78-12.12,4.48-.29.78,12.12ZM660.23,952.29l-4.48.29-.78-12.12,4.48-.29.78,12.12ZM660.83,891.42l-4.48.29-.78-12.12,4.48-.29.78,12.12ZM661.61,903.53l-4.48.29-.78-12.12,4.48-.29.78,12.12ZM662.39,915.65l-4.48.29-.78-12.12,4.48-.29.78,12.12ZM663.16,927.77l-4.48.29-.78-12.12,4.48-.29.78,12.12ZM663.76,866.89l-4.48.29-.78-12.12,4.48-.29.78,12.12ZM663.94,939.89l-4.48.29-.78-12.12,4.48-.29.78,12.12ZM664.54,879.01l-4.48.29-.78-12.12,4.48-.29.78,12.12ZM665.32,891.13l-4.48.29-.78-12.12,4.48-.29.78,12.12ZM666.09,903.25l-4.48.29-.78-12.12,4.48-.29.78,12.12ZM666.87,915.36l-4.48.29-.78-12.12,4.48-.29.78,12.12ZM667.65,927.48l-4.48.29-.78-12.12,4.48-.29.78,12.12ZM669.02,878.72l-4.48.29-.78-12.12,4.48-.29.78,12.12Z"/>
        <path class="cls-1" d="M563.05,931.28l-4.4-.92,2.47-11.89,4.4.92-2.47,11.89ZM564.98,944.09l-4.4-.92,2.47-11.89,4.4.92-2.47,11.89ZM567.45,932.2l-4.4-.92,2.47-11.89,4.4.92-2.47,11.89ZM569.38,945l-4.4-.92,2.47-11.89,4.4.92-2.47,11.89ZM569.92,920.31l-4.4-.92,2.47-11.89,4.4.92-2.47,11.89ZM571.02,870.93l-4.4-.92,2.47-11.89,4.4.92-2.47,11.89ZM571.85,933.11l-4.4-.92,2.47-11.89,4.4.92-2.47,11.89ZM572.4,908.42l-4.4-.92,2.47-11.89,4.4.92-2.47,11.89ZM574.32,921.23l-4.4-.92,2.47-11.89,4.4.92-2.47,11.89ZM574.87,896.53l-4.4-.92,2.47-11.89,4.4.92-2.47,11.89ZM575.42,871.84l-4.4-.92,2.47-11.89,4.4.92-2.47,11.89ZM576.25,934.03l-4.4-.92,2.47-11.89,4.4.92-2.47,11.89ZM576.8,909.34l-4.4-.92,2.47-11.89,4.4.92-2.47,11.89ZM577.35,884.65l-4.4-.92,2.47-11.89,4.4.92-2.47,11.89ZM577.9,859.95l-4.4-.92,2.47-11.89,4.4.92-2.47,11.89ZM579.27,897.45l-4.4-.92,2.47-11.89,4.4.92-2.47,11.89ZM579.82,872.76l-4.4-.92,2.47-11.89,4.4.92-2.47,11.89ZM581.74,885.56l-4.4-.92,2.47-11.89,4.4.92-2.47,11.89ZM582.29,860.87l-4.4-.92,2.47-11.89,4.4.92-2.47,11.89ZM584.22,873.67l-4.4-.92,2.47-11.89,4.4.92-2.47,11.89ZM585.05,935.86l-4.4-.92,2.47-11.89,4.4.92-2.47,11.89ZM586.97,948.66l-4.4-.92,2.47-11.89,4.4.92-2.47,11.89ZM587.52,923.97l-4.4-.92,2.47-11.89,4.4.92-2.47,11.89ZM588.62,874.59l-4.4-.92,2.47-11.89,4.4.92-2.47,11.89ZM589.44,936.78l-4.4-.92,2.47-11.89,4.4.92-2.47,11.89ZM589.99,912.08l-4.4-.92,2.47-11.89,4.4.92-2.47,11.89ZM591.37,949.58l-4.4-.92,2.47-11.89,4.4.92-2.47,11.89ZM591.92,924.89l-4.4-.92,2.47-11.89,4.4.92-2.47,11.89ZM592.47,900.2l-4.4-.92,2.47-11.89,4.4.92-2.47,11.89ZM593.02,875.5l-4.4-.92,2.47-11.89,4.4.92-2.47,11.89ZM593.84,937.69l-4.4-.92,2.47-11.89,4.4.92-2.47,11.89ZM594.39,913l-4.4-.92,2.47-11.89,4.4.92-2.47,11.89ZM594.94,888.31l-4.4-.92,2.47-11.89,4.4.92-2.47,11.89ZM595.49,863.62l-4.4-.92,2.47-11.89,4.4.92-2.47,11.89ZM596.87,901.11l-4.4-.92,2.47-11.89,4.4.92-2.47,11.89ZM597.41,876.42l-4.4-.92,2.47-11.89,4.4.92-2.47,11.89ZM598.24,938.61l-4.4-.92,2.47-11.89,4.4.92-2.47,11.89ZM599.34,889.22l-4.4-.92,2.47-11.89,4.4.92-2.47,11.89ZM599.89,864.53l-4.4-.92,2.47-11.89,4.4.92-2.47,11.89ZM601.81,877.33l-4.4-.92,2.47-11.89,4.4.92-2.47,11.89ZM606.21,878.25l-4.4-.92,2.47-11.89,4.4.92-2.47,11.89Z"/>
        <path class="cls-1" d="M510.08,911.96l-4.16-1.69,4.58-11.25,4.16,1.69-4.58,11.25ZM513.82,926.59l-4.16-1.69,4.58-11.25,4.16,1.69-4.58,11.25ZM514.24,913.65l-4.16-1.69,4.58-11.25,4.16,1.69-4.58,11.25ZM517.99,928.29l-4.16-1.69,4.58-11.25,4.16,1.69-4.58,11.25ZM518.4,915.34l-4.16-1.69,4.58-11.25,4.16,1.69-4.58,11.25ZM518.81,902.4l-4.16-1.69,4.58-11.25,4.16,1.69-4.58,11.25ZM522.56,917.04l-4.16-1.69,4.58-11.25,4.16,1.69-4.58,11.25ZM522.97,904.1l-4.16-1.69,4.58-11.25,4.16,1.69-4.58,11.25ZM523.39,891.16l-4.16-1.69,4.58-11.25,4.16,1.69-4.58,11.25ZM526.72,918.73l-4.16-1.69,4.58-11.25,4.16,1.69-4.58,11.25ZM527.55,892.85l-4.16-1.69,4.58-11.25,4.16,1.69-4.58,11.25ZM527.96,879.91l-4.16-1.69,4.58-11.25,4.16,1.69-4.58,11.25ZM530.47,933.36l-4.16-1.69,4.58-11.25,4.16,1.69-4.58,11.25ZM530.88,920.42l-4.16-1.69,4.58-11.25,4.16,1.69-4.58,11.25ZM532.12,881.6l-4.16-1.69,4.58-11.25,4.16,1.69-4.58,11.25ZM532.54,868.66l-4.16-1.69,4.58-11.25,4.16,1.69-4.58,11.25ZM532.95,855.72l-4.16-1.69,4.58-11.25,4.16,1.69-4.58,11.25ZM534.63,935.06l-4.16-1.69,4.58-11.25,4.16,1.69-4.58,11.25ZM535.05,922.12l-4.16-1.69,4.58-11.25,4.16,1.69-4.58,11.25ZM535.46,909.18l-4.16-1.69,4.58-11.25,4.16,1.69-4.58,11.25ZM536.7,870.35l-4.16-1.69,4.58-11.25,4.16,1.69-4.58,11.25ZM537.11,857.41l-4.16-1.69,4.58-11.25,4.16,1.69-4.58,11.25ZM539.21,923.81l-4.16-1.69,4.58-11.25,4.16,1.69-4.58,11.25ZM539.62,910.87l-4.16-1.69,4.58-11.25,4.16,1.69-4.58,11.25ZM540.04,897.93l-4.16-1.69,4.58-11.25,4.16,1.69-4.58,11.25ZM541.28,859.11l-4.16-1.69,4.58-11.25,4.16,1.69-4.58,11.25ZM541.69,846.16l-4.16-1.69,4.58-11.25,4.16,1.69-4.58,11.25ZM543.37,925.5l-4.16-1.69,4.58-11.25,4.16,1.69-4.58,11.25ZM544.2,899.62l-4.16-1.69,4.58-11.25,4.16,1.69-4.58,11.25ZM544.61,886.68l-4.16-1.69,4.58-11.25,4.16,1.69-4.58,11.25ZM548.77,888.37l-4.16-1.69,4.58-11.25,4.16,1.69-4.58,11.25ZM549.19,875.43l-4.16-1.69,4.58-11.25,4.16,1.69-4.58,11.25ZM549.6,862.49l-4.16-1.69,4.58-11.25,4.16,1.69-4.58,11.25ZM553.35,877.12l-4.16-1.69,4.58-11.25,4.16,1.69-4.58,11.25ZM553.76,864.18l-4.16-1.69,4.58-11.25,4.16,1.69-4.58,11.25ZM557.92,865.88l-4.16-1.69,4.58-11.25,4.16,1.69-4.58,11.25ZM558.34,852.94l-4.16-1.69,4.58-11.25,4.16,1.69-4.58,11.25ZM562.08,867.57l-4.16-1.69,4.58-11.25,4.16,1.69-4.58,11.25ZM562.5,854.63l-4.16-1.69,4.58-11.25,4.16,1.69-4.58,11.25Z"/>
        <path class="cls-1" d="M456.02,951.31l-3.82-2.36,6.38-10.33,3.82,2.36-6.38,10.33ZM462.4,940.98l-3.82-2.36,6.38-10.33,3.82,2.36-6.38,10.33ZM462.42,898.18l-3.82-2.36,6.38-10.33,3.82,2.36-6.38,10.33ZM466.22,943.34l-3.82-2.36,6.38-10.33,3.82,2.36-6.38,10.33ZM468.78,930.65l-3.82-2.36,6.38-10.33,3.82,2.36-6.38,10.33ZM470.07,902.9l-3.82-2.36,6.38-10.33,3.82,2.36-6.38,10.33ZM472.6,933.01l-3.82-2.36,6.38-10.33,3.82,2.36-6.38,10.33ZM472.62,890.21l-3.82-2.36,6.38-10.33,3.82,2.36-6.38,10.33ZM473.89,905.26l-3.82-2.36,6.38-10.33,3.82,2.36-6.38,10.33ZM475.16,920.32l-3.82-2.36,6.38-10.33,3.82,2.36-6.38,10.33ZM476.45,892.57l-3.82-2.36,6.38-10.33,3.82,2.36-6.38,10.33ZM478.98,922.68l-3.82-2.36,6.38-10.33,3.82,2.36-6.38,10.33ZM479,879.88l-3.82-2.36,6.38-10.33,3.82,2.36-6.38,10.33ZM481.54,909.99l-3.82-2.36,6.38-10.33,3.82,2.36-6.38,10.33ZM482.82,882.24l-3.82-2.36,6.38-10.33,3.82,2.36-6.38,10.33ZM484.09,897.29l-3.82-2.36,6.38-10.33,3.82,2.36-6.38,10.33ZM485.36,912.35l-3.82-2.36,6.38-10.33,3.82,2.36-6.38,10.33ZM487.91,899.65l-3.82-2.36,6.38-10.33,3.82,2.36-6.38,10.33ZM491.74,902.01l-3.82-2.36,6.38-10.33,3.82,2.36-6.38,10.33ZM493.03,874.27l-3.82-2.36,6.38-10.33,3.82,2.36-6.38,10.33ZM494.29,889.32l-3.82-2.36,6.38-10.33,3.82,2.36-6.38,10.33ZM495.58,861.58l-3.82-2.36,6.38-10.33,3.82,2.36-6.38,10.33ZM496.85,876.63l-3.82-2.36,6.38-10.33,3.82,2.36-6.38,10.33ZM498.12,891.68l-3.82-2.36,6.38-10.33,3.82,2.36-6.38,10.33ZM500.67,878.99l-3.82-2.36,6.38-10.33,3.82,2.36-6.38,10.33ZM500.7,836.19l-3.82-2.36,6.38-10.33,3.82,2.36-6.38,10.33ZM501.96,851.24l-3.82-2.36,6.38-10.33,3.82,2.36-6.38,10.33ZM504.5,881.35l-3.82-2.36,6.38-10.33,3.82,2.36-6.38,10.33ZM504.52,838.55l-3.82-2.36,6.38-10.33,3.82,2.36-6.38,10.33ZM507.05,868.66l-3.82-2.36,6.38-10.33,3.82,2.36-6.38,10.33ZM508.34,840.91l-3.82-2.36,6.38-10.33,3.82,2.36-6.38,10.33ZM510.87,871.02l-3.82-2.36,6.38-10.33,3.82,2.36-6.38,10.33ZM510.9,828.22l-3.82-2.36,6.38-10.33,3.82,2.36-6.38,10.33ZM513.43,858.32l-3.82-2.36,6.38-10.33,3.82,2.36-6.38,10.33ZM515.99,845.63l-3.82-2.36,6.38-10.33,3.82,2.36-6.38,10.33ZM517.25,860.68l-3.82-2.36,6.38-10.33,3.82,2.36-6.38,10.33ZM519.81,847.99l-3.82-2.36,6.38-10.33,3.82,2.36-6.38,10.33ZM523.63,850.35l-3.82-2.36,6.38-10.33,3.82,2.36-6.38,10.33ZM526.19,837.66l-3.82-2.36,6.38-10.33,3.82,2.36-6.38,10.33ZM527.46,852.71l-3.82-2.36,6.38-10.33,3.82,2.36-6.38,10.33ZM530.01,840.02l-3.82-2.36,6.38-10.33,3.82,2.36-6.38,10.33Z"/>
        <path class="cls-1" d="M427.2,869.62l-3.38-2.96,8-9.14,3.38,2.96-8,9.14ZM428.44,854.57l-3.38-2.96,8-9.14,3.38,2.96-8,9.14ZM430.58,872.58l-3.38-2.96,8-9.14,3.38,2.96-8,9.14ZM431.82,857.53l-3.38-2.96,8-9.14,3.38,2.96-8,9.14ZM435.2,860.48l-3.38-2.96,8-9.14,3.38,2.96-8,9.14ZM438.58,863.44l-3.38-2.96,8-9.14,3.38,2.96-8,9.14ZM439.81,848.39l-3.38-2.96,8-9.14,3.38,2.96-8,9.14ZM440.72,881.46l-3.38-2.96,8-9.14,3.38,2.96-8,9.14ZM441.96,866.4l-3.38-2.96,8-9.14,3.38,2.96-8,9.14ZM443.19,851.35l-3.38-2.96,8-9.14,3.38,2.96-8,9.14ZM444.1,884.42l-3.38-2.96,8-9.14,3.38,2.96-8,9.14ZM445.34,869.36l-3.38-2.96,8-9.14,3.38,2.96-8,9.14ZM447.81,839.25l-3.38-2.96,8-9.14,3.38,2.96-8,9.14ZM448.72,872.32l-3.38-2.96,8-9.14,3.38,2.96-8,9.14ZM451.19,842.21l-3.38-2.96,8-9.14,3.38,2.96-8,9.14ZM452.1,875.28l-3.38-2.96,8-9.14,3.38,2.96-8,9.14ZM453.34,860.23l-3.38-2.96,8-9.14,3.38,2.96-8,9.14ZM455.48,878.24l-3.38-2.96,8-9.14,3.38,2.96-8,9.14ZM455.81,830.12l-3.38-2.96,8-9.14,3.38,2.96-8,9.14ZM456.72,863.19l-3.38-2.96,8-9.14,3.38,2.96-8,9.14ZM459.19,833.08l-3.38-2.96,8-9.14,3.38,2.96-8,9.14ZM461.33,851.09l-3.38-2.96,8-9.14,3.38,2.96-8,9.14ZM463.81,820.98l-3.38-2.96,8-9.14,3.38,2.96-8,9.14ZM464.71,854.05l-3.38-2.96,8-9.14,3.38,2.96-8,9.14ZM467.19,823.94l-3.38-2.96,8-9.14,3.38,2.96-8,9.14ZM468.43,808.88l-3.38-2.96,8-9.14,3.38,2.96-8,9.14ZM469.33,841.95l-3.38-2.96,8-9.14,3.38,2.96-8,9.14ZM471.81,811.84l-3.38-2.96,8-9.14,3.38,2.96-8,9.14ZM472.71,844.91l-3.38-2.96,8-9.14,3.38,2.96-8,9.14ZM475.19,814.8l-3.38-2.96,8-9.14,3.38,2.96-8,9.14ZM477.33,832.82l-3.38-2.96,8-9.14,3.38,2.96-8,9.14ZM479.81,802.71l-3.38-2.96,8-9.14,3.38,2.96-8,9.14ZM480.71,835.78l-3.38-2.96,8-9.14,3.38,2.96-8,9.14ZM481.95,820.72l-3.38-2.96,8-9.14,3.38,2.96-8,9.14ZM485.33,823.68l-3.38-2.96,8-9.14,3.38,2.96-8,9.14ZM488.71,826.64l-3.38-2.96,8-9.14,3.38,2.96-8,9.14ZM492.09,829.6l-3.38-2.96,8-9.14,3.38,2.96-8,9.14ZM493.33,814.54l-3.38-2.96,8-9.14,3.38,2.96-8,9.14ZM496.71,817.5l-3.38-2.96,8-9.14,3.38,2.96-8,9.14Z"/>
        <path class="cls-1" d="M393.53,832.97l-2.85-3.48,9.39-7.7,2.85,3.48-9.39,7.7ZM396.38,836.45l-2.85-3.48,9.39-7.7,2.85,3.48-9.39,7.7ZM397.23,818.32l-2.85-3.48,9.39-7.69,2.85,3.48-9.39,7.69ZM399.23,839.92l-2.85-3.48,9.39-7.7,2.85,3.48-9.39,7.7ZM400.08,821.8l-2.85-3.48,9.39-7.69,2.85,3.48-9.39,7.69ZM402.93,825.28l-2.85-3.48,9.39-7.69,2.85,3.48-9.39,7.69ZM405.78,828.75l-2.85-3.48,9.39-7.69,2.85,3.48-9.39,7.69ZM409.47,814.11l-2.85-3.48,9.39-7.7,2.85,3.48-9.39,7.7ZM411.47,835.7l-2.85-3.48,9.39-7.69,2.85,3.48-9.39,7.69ZM412.32,817.58l-2.85-3.48,9.39-7.7,2.85,3.48-9.39,7.7ZM418.87,806.41l-2.85-3.48,9.39-7.69,2.85,3.48-9.39,7.69ZM420.86,828.01l-2.85-3.48,9.39-7.7,2.85,3.48-9.39,7.7ZM421.72,809.89l-2.85-3.48,9.39-7.69,2.85,3.48-9.39,7.69ZM423.71,831.48l-2.85-3.48,9.39-7.7,2.85,3.48-9.39,7.7ZM428.26,798.72l-2.85-3.48,9.39-7.7,2.85,3.48-9.39,7.7ZM430.26,820.31l-2.85-3.48,9.39-7.7,2.85,3.48-9.39,7.7ZM431.11,802.19l-2.85-3.48,9.39-7.7,2.85,3.48-9.39,7.7ZM433.1,823.79l-2.85-3.48,9.39-7.7,2.85,3.48-9.39,7.7ZM437.65,791.02l-2.85-3.48,9.39-7.7,2.85,3.48-9.39,7.7ZM439.65,812.62l-2.85-3.48,9.39-7.69,2.85,3.48-9.39,7.69ZM440.5,794.5l-2.85-3.48,9.39-7.7,2.85,3.48-9.39,7.7ZM442.5,816.09l-2.85-3.48,9.39-7.69,2.85,3.48-9.39,7.69ZM449.04,804.92l-2.85-3.48,9.39-7.7,2.85,3.48-9.39,7.7ZM449.9,786.8l-2.85-3.48,9.39-7.69,2.85,3.48-9.39,7.69ZM451.89,808.4l-2.85-3.48,9.39-7.7,2.85,3.48-9.39,7.7ZM452.74,790.28l-2.85-3.48,9.39-7.69,2.85,3.48-9.39,7.69ZM455.59,793.75l-2.85-3.48,9.39-7.69,2.85,3.48-9.39,7.69ZM458.44,797.23l-2.85-3.48,9.39-7.69,2.85,3.48-9.39,7.69ZM461.28,800.7l-2.85-3.48,9.39-7.69,2.85,3.48-9.39,7.69ZM464.13,804.18l-2.85-3.48,9.39-7.69,2.85,3.48-9.39,7.69ZM464.98,786.06l-2.85-3.48,9.39-7.7,2.85,3.48-9.39,7.7ZM467.83,789.53l-2.85-3.48,9.39-7.7,2.85,3.48-9.39,7.7Z"/>
        <path class="cls-1" d="M355.62,772l-2.12-3.96,10.7-5.74,2.13,3.96-10.7,5.74ZM357.74,775.96l-2.13-3.96,10.7-5.74,2.12,3.96-10.7,5.74ZM359.87,779.91l-2.12-3.96,10.7-5.74,2.13,3.96-10.7,5.74ZM362.06,758.34l-2.12-3.96,10.7-5.74,2.12,3.96-10.7,5.74ZM364.12,787.83l-2.12-3.96,10.7-5.74,2.12,3.96-10.7,5.74ZM364.19,762.29l-2.12-3.96,10.7-5.74,2.13,3.96-10.7,5.74ZM366.24,791.79l-2.12-3.96,10.7-5.74,2.13,3.96-10.7,5.74ZM366.32,766.25l-2.13-3.96,10.7-5.74,2.12,3.96-10.7,5.74ZM368.37,795.75l-2.13-3.96,10.7-5.74,2.12,3.96-10.7,5.74ZM368.44,770.21l-2.12-3.96,10.7-5.74,2.13,3.96-10.7,5.74ZM372.62,803.66l-2.13-3.96,10.7-5.74,2.12,3.96-10.7,5.74ZM372.69,778.13l-2.12-3.96,10.7-5.74,2.13,3.96-10.7,5.74ZM374.74,807.62l-2.12-3.96,10.7-5.74,2.13,3.96-10.7,5.74ZM374.82,782.09l-2.12-3.96,10.7-5.74,2.12,3.96-10.7,5.74ZM374.89,756.55l-2.13-3.96,10.7-5.74,2.12,3.96-10.7,5.74ZM376.87,811.58l-2.12-3.96,10.7-5.74,2.12,3.96-10.7,5.74ZM376.94,786.04l-2.13-3.96,10.7-5.74,2.12,3.96-10.7,5.74ZM377.01,760.51l-2.12-3.96,10.7-5.74,2.13,3.96-10.7,5.74ZM381.19,793.96l-2.13-3.96,10.7-5.74,2.12,3.96-10.7,5.74ZM383.32,797.92l-2.12-3.96,10.7-5.74,2.13,3.96-10.7,5.74ZM383.39,772.38l-2.13-3.96,10.7-5.74,2.12,3.96-10.7,5.74ZM385.44,801.88l-2.13-3.96,10.7-5.74,2.12,3.96-10.7,5.74ZM385.51,776.34l-2.12-3.96,10.7-5.74,2.12,3.96-10.7,5.74ZM385.59,750.81l-2.12-3.96,10.7-5.74,2.13,3.96-10.7,5.74ZM387.71,754.76l-2.13-3.96,10.7-5.74,2.12,3.96-10.7,5.74ZM391.89,788.22l-2.12-3.96,10.7-5.74,2.13,3.96-10.7,5.74ZM394.02,792.18l-2.13-3.96,10.7-5.74,2.12,3.96-10.7,5.74ZM394.09,766.64l-2.12-3.96,10.7-5.74,2.13,3.96-10.7,5.74ZM396.21,770.6l-2.12-3.96,10.7-5.74,2.12,3.96-10.7,5.74ZM396.29,745.06l-2.13-3.96,10.7-5.74,2.12,3.96-10.7,5.74ZM398.41,749.02l-2.12-3.96,10.7-5.74,2.13,3.96-10.7,5.74ZM402.59,782.47l-2.13-3.96,10.7-5.74,2.12,3.96-10.7,5.74ZM404.71,786.43l-2.12-3.96,10.7-5.74,2.13,3.96-10.7,5.74ZM404.79,760.9l-2.13-3.96,10.7-5.74,2.12,3.96-10.7,5.74ZM406.91,764.85l-2.12-3.96,10.7-5.74,2.13,3.96-10.7,5.74ZM406.98,739.32l-2.12-3.96,10.7-5.74,2.12,3.96-10.7,5.74ZM409.11,743.28l-2.13-3.96,10.7-5.74,2.12,3.96-10.7,5.74ZM413.29,776.73l-2.12-3.96,10.7-5.74,2.13,3.96-10.7,5.74ZM415.41,780.69l-2.13-3.96,10.7-5.74,2.12,3.96-10.7,5.74ZM415.48,755.15l-2.12-3.96,10.7-5.74,2.13,3.96-10.7,5.74ZM417.61,759.11l-2.13-3.96,10.7-5.74,2.12,3.96-10.7,5.74ZM419.81,737.53l-2.12-3.96,10.7-5.74,2.13,3.96-10.7,5.74ZM421.93,741.49l-2.13-3.96,10.7-5.74,2.12,3.96-10.7,5.74ZM423.99,770.99l-2.13-3.96,10.7-5.74,2.12,3.96-10.7,5.74ZM424.06,745.45l-2.12-3.96,10.7-5.74,2.13,3.96-10.7,5.74ZM426.11,774.95l-2.12-3.96,10.7-5.74,2.13,3.96-10.7,5.74ZM426.18,749.41l-2.13-3.96,10.7-5.74,2.12,3.96-10.7,5.74ZM428.31,753.37l-2.12-3.96,10.7-5.74,2.13,3.96-10.7,5.74ZM432.56,761.28l-2.13-3.96,10.7-5.74,2.12,3.96-10.7,5.74ZM434.68,765.24l-2.12-3.96,10.7-5.74,2.13,3.96-10.7,5.74ZM434.76,739.71l-2.13-3.96,10.7-5.74,2.12,3.96-10.7,5.74ZM436.81,769.2l-2.13-3.96,10.7-5.74,2.12,3.96-10.7,5.74ZM436.88,743.67l-2.12-3.96,10.7-5.74,2.13,3.96-10.7,5.74ZM438.93,773.16l-2.12-3.96,10.7-5.74,2.13,3.96-10.7,5.74ZM445.38,759.5l-2.13-3.96,10.7-5.74,2.12,3.96-10.7,5.74ZM447.51,763.46l-2.12-3.96,10.7-5.74,2.13,3.96-10.7,5.74Z"/>
        <path class="cls-1" d="M337.58,721.21l-1.29-4.3,11.63-3.48,1.29,4.3-11.63,3.48ZM338.86,725.52l-1.29-4.3,11.63-3.48,1.29,4.3-11.63,3.48ZM342.73,738.43l-1.29-4.3,11.63-3.48,1.29,4.3-11.63,3.48ZM344.02,742.74l-1.29-4.3,11.63-3.48,1.29,4.3-11.63,3.48ZM346.63,709.13l-1.29-4.3,11.63-3.48,1.29,4.3-11.63,3.48ZM347.92,713.43l-1.29-4.3,11.63-3.48,1.29,4.3-11.63,3.48ZM349.21,717.74l-1.29-4.3,11.63-3.48,1.29,4.3-11.63,3.48ZM350.5,722.04l-1.29-4.3,11.63-3.48,1.29,4.3-11.63,3.48ZM351.79,726.34l-1.29-4.3,11.63-3.48,1.29,4.3-11.63,3.48ZM353.07,730.65l-1.29-4.3,11.63-3.48,1.29,4.3-11.63,3.48ZM354.36,734.95l-1.29-4.3,11.63-3.48,1.29,4.3-11.63,3.48ZM355.65,739.26l-1.29-4.3,11.63-3.48,1.29,4.3-11.63,3.48ZM356.94,743.56l-1.29-4.3,11.63-3.48,1.29,4.3-11.63,3.48ZM359.56,709.95l-1.29-4.3,11.63-3.48,1.29,4.3-11.63,3.48ZM360.84,714.25l-1.29-4.3,11.63-3.48,1.29,4.3-11.63,3.48ZM364.71,727.17l-1.29-4.3,11.63-3.48,1.29,4.3-11.63,3.48ZM365.99,731.47l-1.29-4.3,11.63-3.48,1.29,4.3-11.63,3.48ZM371.19,706.47l-1.29-4.3,11.63-3.48,1.29,4.3-11.63,3.48ZM372.48,710.77l-1.29-4.3,11.63-3.48,1.29,4.3-11.63,3.48ZM376.34,723.69l-1.29-4.3,11.63-3.48,1.29,4.3-11.63,3.48ZM377.63,727.99l-1.29-4.3,11.63-3.48,1.29,4.3-11.63,3.48ZM382.82,702.99l-1.29-4.3,11.63-3.48,1.29,4.3-11.63,3.48ZM384.11,707.29l-1.29-4.3,11.63-3.48,1.29,4.3-11.63,3.48ZM387.97,720.21l-1.29-4.3,11.63-3.48,1.29,4.3-11.63,3.48ZM389.26,724.51l-1.29-4.3,11.63-3.48,1.29,4.3-11.63,3.48ZM394.46,699.51l-1.29-4.3,11.63-3.48,1.29,4.3-11.63,3.48ZM395.74,703.81l-1.29-4.3,11.63-3.48,1.29,4.3-11.63,3.48ZM399.61,716.73l-1.29-4.3,11.63-3.48,1.29,4.3-11.63,3.48ZM400.89,721.03l-1.29-4.3,11.63-3.48,1.29,4.3-11.63,3.48ZM404.8,691.72l-1.29-4.3,11.63-3.48,1.29,4.3-11.63,3.48ZM406.09,696.03l-1.29-4.3,11.63-3.48,1.29,4.3-11.63,3.48ZM407.38,700.33l-1.29-4.3,11.63-3.48,1.29,4.3-11.63,3.48ZM409.95,708.94l-1.29-4.3,11.63-3.48,1.29,4.3-11.63,3.48ZM411.24,713.25l-1.29-4.3,11.63-3.48,1.29,4.3-11.63,3.48ZM412.53,717.55l-1.29-4.3,11.63-3.48,1.29,4.3-11.63,3.48ZM413.82,721.85l-1.29-4.3,11.63-3.48,1.29,4.3-11.63,3.48ZM417.72,692.55l-1.29-4.3,11.63-3.48,1.29,4.3-11.63,3.48ZM422.87,709.77l-1.29-4.3,11.63-3.48,1.29,4.3-11.63,3.48ZM424.16,714.07l-1.29-4.3,11.63-3.48,1.29,4.3-11.63,3.48Z"/>
        <path class="cls-1" d="M326.99,639.7l-.09-4.49,12.14-.25.09,4.49-12.14.25ZM327.08,644.19l-.09-4.49,12.14-.25.09,4.49-12.14.25ZM327.17,648.68l-.09-4.49,12.14-.25.09,4.49-12.14.25ZM338.95,630.46l-.09-4.49,12.14-.25.09,4.49-12.14.25ZM339.04,634.96l-.09-4.49,12.14-.25.09,4.49-12.14.25ZM339.13,639.45l-.09-4.49,12.14-.25.09,4.49-12.14.25ZM339.41,652.92l-.09-4.49,12.14-.25.09,4.49-12.14.25ZM351.18,634.71l-.09-4.49,12.14-.25.09,4.49-12.14.25ZM351.27,639.2l-.09-4.49,12.14-.25.09,4.49-12.14.25ZM351.55,652.68l-.09-4.49,12.14-.25.09,4.49-12.14.25ZM351.64,657.17l-.09-4.49,12.14-.25.09,4.49-12.14.25ZM363.32,634.46l-.09-4.49,12.14-.25.09,4.49-12.14.25ZM363.41,638.96l-.09-4.49,12.14-.25.09,4.49-12.14.25ZM363.69,652.43l-.09-4.49,12.14-.25.09,4.49-12.14.25ZM363.78,656.92l-.09-4.49,12.14-.25.09,4.49-12.14.25ZM375.46,634.22l-.09-4.49,12.14-.25.09,4.49-12.14.25ZM375.55,638.71l-.09-4.49,12.14-.25.09,4.49-12.14.25ZM375.83,652.18l-.09-4.49,12.14-.25.09,4.49-12.14.25ZM375.92,656.68l-.09-4.49,12.14-.25.09,4.49-12.14.25ZM387.6,633.97l-.09-4.49,12.14-.25.09,4.49-12.14.25ZM387.69,638.46l-.09-4.49,12.14-.25.09,4.49-12.14.25ZM387.97,651.94l-.09-4.49,12.14-.25.09,4.49-12.14.25ZM388.06,656.43l-.09-4.49,12.14-.25.09,4.49-12.14.25ZM399.65,629.23l-.09-4.49,12.14-.25.09,4.49-12.14.25ZM399.74,633.72l-.09-4.49,12.14-.25.09,4.49-12.14.25ZM399.83,638.22l-.09-4.49,12.14-.25.09,4.49-12.14.25ZM399.92,642.71l-.09-4.49,12.14-.25.09,4.49-12.14.25ZM400.02,647.2l-.09-4.49,12.14-.25.09,4.49-12.14.25ZM400.11,651.69l-.09-4.49,12.14-.25.09,4.49-12.14.25ZM400.2,656.18l-.09-4.49,12.14-.25.09,4.49-12.14.25ZM400.29,660.68l-.09-4.49,12.14-.25.09,4.49-12.14.25ZM411.88,633.48l-.09-4.49,12.14-.25.09,4.49-12.14.25ZM411.97,637.97l-.09-4.49,12.14-.25.09,4.49-12.14.25ZM412.16,646.95l-.09-4.49,12.14-.25.09,4.49-12.14.25ZM412.25,651.45l-.09-4.49,12.14-.25.09,4.49-12.14.25Z"/>
        <path class="cls-1" d="M327.08,612.55l.77-4.43,11.96,2.08-.77,4.43-11.96-2.08ZM327.85,608.12l.77-4.43,11.96,2.08-.77,4.43-11.96-2.08ZM328.63,603.69l.77-4.43,11.96,2.08-.77,4.43-11.96-2.08ZM330.17,594.84l.77-4.43,11.96,2.08-.77,4.43-11.96-2.08ZM330.94,590.42l.77-4.43,11.96,2.08-.77,4.43-11.96-2.08ZM331.71,585.99l.77-4.43,11.96,2.08-.77,4.43-11.96-2.08ZM333.25,577.14l.77-4.43,11.96,2.08-.77,4.43-11.96-2.08ZM334.02,572.71l.77-4.43,11.96,2.08-.77,4.43-11.96-2.08ZM334.79,568.28l.77-4.43,11.96,2.08-.77,4.43-11.96-2.08ZM339.82,610.2l.77-4.43,11.96,2.08-.77,4.43-11.96-2.08ZM340.59,605.78l.77-4.43,11.96,2.08-.77,4.43-11.96-2.08ZM341.36,601.35l.77-4.43,11.96,2.08-.77,4.43-11.96-2.08ZM342.9,592.5l.77-4.43,11.96,2.08-.77,4.43-11.96-2.08ZM343.67,588.07l.77-4.43,11.96,2.08-.77,4.43-11.96-2.08ZM344.44,583.65l.77-4.43,11.96,2.08-.77,4.43-11.96-2.08ZM345.99,574.79l.77-4.43,11.96,2.08-.77,4.43-11.96-2.08ZM346.76,570.37l.77-4.43,11.96,2.08-.77,4.43-11.96-2.08ZM347.53,565.94l.77-4.43,11.96,2.08-.77,4.43-11.96-2.08ZM348.3,561.52l.77-4.43,11.96,2.08-.77,4.43-11.96-2.08ZM352.55,607.86l.77-4.43,11.96,2.08-.77,4.43-11.96-2.08ZM353.32,603.44l.77-4.43,11.96,2.08-.77,4.43-11.96-2.08ZM355.64,590.16l.77-4.43,11.96,2.08-.77,4.43-11.96-2.08ZM356.41,585.73l.77-4.43,11.96,2.08-.77,4.43-11.96-2.08ZM358.72,572.45l.77-4.43,11.96,2.08-.77,4.43-11.96-2.08ZM359.49,568.03l.77-4.43,11.96,2.08-.77,4.43-11.96-2.08ZM364.51,609.95l.77-4.43,11.96,2.08-.77,4.43-11.96-2.08ZM365.29,605.52l.77-4.43,11.96,2.08-.77,4.43-11.96-2.08ZM367.6,592.24l.77-4.43,11.96,2.08-.77,4.43-11.96-2.08ZM368.37,587.82l.77-4.43,11.96,2.08-.77,4.43-11.96-2.08ZM370.68,574.54l.77-4.43,11.96,2.08-.77,4.43-11.96-2.08ZM371.45,570.11l.77-4.43,11.96,2.08-.77,4.43-11.96-2.08ZM376.48,612.03l.77-4.43,11.96,2.08-.77,4.43-11.96-2.08ZM377.25,607.6l.77-4.43,11.96,2.08-.77,4.43-11.96-2.08ZM379.56,594.33l.77-4.43,11.96,2.08-.77,4.43-11.96-2.08ZM380.33,589.9l.77-4.43,11.96,2.08-.77,4.43-11.96-2.08ZM382.65,576.62l.77-4.43,11.96,2.08-.77,4.43-11.96-2.08ZM383.42,572.19l.77-4.43,11.96,2.08-.77,4.43-11.96-2.08ZM388.44,614.11l.77-4.43,11.96,2.08-.77,4.43-11.96-2.08ZM389.21,609.69l.77-4.43,11.96,2.08-.77,4.43-11.96-2.08ZM391.52,596.41l.77-4.43,11.96,2.08-.77,4.43-11.96-2.08ZM392.29,591.98l.77-4.43,11.96,2.08-.77,4.43-11.96-2.08ZM394.61,578.71l.77-4.43,11.96,2.08-.77,4.43-11.96-2.08ZM395.38,574.28l.77-4.43,11.96,2.08-.77,4.43-11.96-2.08ZM399.63,620.62l.77-4.43,11.96,2.08-.77,4.43-11.96-2.08ZM400.4,616.2l.77-4.43,11.96,2.08-.77,4.43-11.96-2.08ZM401.17,611.77l.77-4.43,11.96,2.08-.77,4.43-11.96-2.08ZM401.94,607.35l.77-4.43,11.96,2.08-.77,4.43-11.96-2.08ZM403.49,598.49l.77-4.43,11.96,2.08-.77,4.43-11.96-2.08ZM404.26,594.07l.77-4.43,11.96,2.08-.77,4.43-11.96-2.08ZM405.03,589.64l.77-4.43,11.96,2.08-.77,4.43-11.96-2.08ZM405.8,585.22l.77-4.43,11.96,2.08-.77,4.43-11.96-2.08ZM406.57,580.79l.77-4.43,11.96,2.08-.77,4.43-11.96-2.08ZM412.36,618.28l.77-4.43,11.96,2.08-.77,4.43-11.96-2.08ZM413.14,613.86l.77-4.43,11.96,2.08-.77,4.43-11.96-2.08ZM416.22,596.15l.77-4.43,11.96,2.08-.77,4.43-11.96-2.08ZM416.99,591.73l.77-4.43,11.96,2.08-.77,4.43-11.96-2.08Z"/>
        <path class="cls-1" d="M347.05,529.71l1.61-4.19,11.33,4.36-1.61,4.19-11.33-4.36ZM348.66,525.52l1.61-4.19,11.33,4.36-1.61,4.19-11.33-4.36ZM350.28,521.33l1.61-4.19,11.33,4.36-1.61,4.19-11.33-4.36ZM356.77,538.27l1.61-4.19,11.33,4.36-1.61,4.19-11.33-4.36ZM361.61,525.69l1.61-4.19,11.33,4.36-1.61,4.19-11.33-4.36ZM363.22,521.49l1.61-4.19,11.33,4.36-1.61,4.19-11.33-4.36ZM364.84,517.3l1.61-4.19,11.33,4.36-1.61,4.19-11.33-4.36ZM366.49,546.82l1.61-4.19,11.33,4.36-1.61,4.19-11.33-4.36ZM368.1,542.63l1.61-4.19,11.33,4.36-1.61,4.19-11.33-4.36ZM372.94,530.05l1.61-4.19,11.33,4.36-1.61,4.19-11.33-4.36ZM374.56,525.86l1.61-4.19,11.33,4.36-1.61,4.19-11.33-4.36ZM377.82,551.18l1.61-4.19,11.33,4.36-1.61,4.19-11.33-4.36ZM379.43,546.99l1.61-4.19,11.33,4.36-1.61,4.19-11.33-4.36ZM384.28,534.41l1.61-4.19,11.33,4.36-1.61,4.19-11.33-4.36ZM385.89,530.22l1.61-4.19,11.33,4.36-1.61,4.19-11.33-4.36ZM389.15,555.55l1.61-4.19,11.33,4.36-1.61,4.19-11.33-4.36ZM390.77,551.35l1.61-4.19,11.33,4.36-1.61,4.19-11.33-4.36ZM395.61,538.77l1.61-4.19,11.33,4.36-1.61,4.19-11.33-4.36ZM397.22,534.58l1.61-4.19,11.33,4.36-1.61,4.19-11.33-4.36ZM400.48,559.91l1.61-4.19,11.33,4.36-1.61,4.19-11.33-4.36ZM402.1,555.71l1.61-4.19,11.33,4.36-1.61,4.19-11.33-4.36ZM406.94,543.14l1.61-4.19,11.33,4.36-1.61,4.19-11.33-4.36ZM408.55,538.94l1.61-4.19,11.33,4.36-1.61,4.19-11.33-4.36ZM410.2,568.46l1.61-4.19,11.33,4.36-1.61,4.19-11.33-4.36ZM411.82,564.27l1.61-4.19,11.33,4.36-1.61,4.19-11.33-4.36ZM413.43,560.08l1.61-4.19,11.33,4.36-1.61,4.19-11.33-4.36ZM415.04,555.88l1.61-4.19,11.33,4.36-1.61,4.19-11.33-4.36ZM416.66,551.69l1.61-4.19,11.33,4.36-1.61,4.19-11.33-4.36ZM418.27,547.5l1.61-4.19,11.33,4.36-1.61,4.19-11.33-4.36ZM419.89,543.3l1.61-4.19,11.33,4.36-1.61,4.19-11.33-4.36ZM421.5,539.11l1.61-4.19,11.33,4.36-1.61,4.19-11.33-4.36ZM424.76,564.44l1.61-4.19,11.33,4.36-1.61,4.19-11.33-4.36ZM426.38,560.25l1.61-4.19,11.33,4.36-1.61,4.19-11.33-4.36ZM429.6,551.86l1.61-4.19,11.33,4.36-1.61,4.19-11.33-4.36ZM431.22,547.67l1.61-4.19,11.33,4.36-1.61,4.19-11.33-4.36Z"/>
        <path class="cls-1" d="M321.48,468.89l2.15-3.94,10.66,5.82-2.15,3.94-10.66-5.82ZM323.63,464.95l2.15-3.94,10.66,5.82-2.15,3.94-10.66-5.82ZM332.14,474.71l2.15-3.94,10.66,5.82-2.15,3.94-10.66-5.82ZM334.29,470.77l2.15-3.94,10.66,5.82-2.15,3.94-10.66-5.82ZM364.11,492.17l2.15-3.94,10.66,5.82-2.15,3.94-10.66-5.82ZM366.26,488.22l2.15-3.94,10.66,5.82-2.15,3.94-10.66-5.82ZM372.61,501.93l2.15-3.94,10.66,5.82-2.15,3.94-10.66-5.82ZM374.77,497.99l2.15-3.94,10.66,5.82-2.15,3.94-10.66-5.82ZM376.92,494.04l2.15-3.94,10.66,5.82-2.15,3.94-10.66-5.82ZM379.07,490.1l2.15-3.94,10.66,5.82-2.15,3.94-10.66-5.82ZM385.43,503.81l2.15-3.94,10.66,5.82-2.15,3.94-10.66-5.82ZM387.58,499.86l2.15-3.94,10.66,5.82-2.15,3.94-10.66-5.82ZM396.08,509.63l2.15-3.94,10.66,5.82-2.15,3.94-10.66-5.82ZM398.24,505.68l2.15-3.94,10.66,5.82-2.15,3.94-10.66-5.82ZM406.74,515.45l2.15-3.94,10.66,5.82-2.15,3.94-10.66-5.82ZM408.89,511.5l2.15-3.94,10.66,5.82-2.15,3.94-10.66-5.82ZM417.4,521.27l2.15-3.94,10.66,5.82-2.15,3.94-10.66-5.82ZM419.55,517.32l2.15-3.94,10.66,5.82-2.15,3.94-10.66-5.82ZM425.9,531.03l2.15-3.94,10.66,5.82-2.15,3.94-10.66-5.82ZM428.06,527.08l2.15-3.94,10.66,5.82-2.15,3.94-10.66-5.82ZM430.21,523.14l2.15-3.94,10.66,5.82-2.15,3.94-10.66-5.82ZM432.36,519.2l2.15-3.94,10.66,5.82-2.15,3.94-10.66-5.82ZM438.71,532.9l2.15-3.94,10.66,5.82-2.15,3.94-10.66-5.82ZM440.87,528.96l2.15-3.94,10.66,5.82-2.15,3.94-10.66-5.82Z"/>
        <path class="cls-1" d="M353.69,439.75l2.58-3.68,9.95,6.97-2.58,3.68-9.95-6.97ZM361.06,450.4l2.58-3.68,9.95,6.97-2.58,3.68-9.95-6.97ZM363.63,446.72l2.58-3.68,9.95,6.97-2.58,3.68-9.95-6.97ZM371,457.37l2.58-3.68,9.95,6.97-2.58,3.68-9.95-6.97ZM373.58,453.69l2.58-3.68,9.95,6.97-2.58,3.68-9.95-6.97ZM378.37,468.01l2.58-3.68,9.95,6.97-2.58,3.68-9.95-6.97ZM380.95,464.33l2.58-3.68,9.95,6.97-2.58,3.68-9.95-6.97ZM383.53,460.65l2.58-3.68,9.95,6.97-2.58,3.68-9.95-6.97ZM386.1,456.97l2.58-3.68,9.95,6.97-2.58,3.68-9.95-6.97ZM388.68,453.29l2.58-3.68,9.95,6.97-2.58,3.68-9.95-6.97ZM390.89,471.3l2.58-3.68,9.95,6.97-2.58,3.68-9.95-6.97ZM393.47,467.62l2.58-3.68,9.95,6.97-2.58,3.68-9.95-6.97ZM400.84,478.27l2.58-3.68,9.95,6.97-2.58,3.68-9.95-6.97ZM403.42,474.59l2.58-3.68,9.95,6.97-2.58,3.68-9.95-6.97ZM410.78,485.23l2.58-3.68,9.95,6.97-2.58,3.68-9.95-6.97ZM413.36,481.55l2.58-3.68,9.95,6.97-2.58,3.68-9.95-6.97ZM420.73,492.2l2.58-3.68,9.95,6.97-2.58,3.68-9.95-6.97ZM423.31,488.52l2.58-3.68,9.95,6.97-2.58,3.68-9.95-6.97ZM430.68,499.17l2.58-3.68,9.95,6.97-2.58,3.68-9.95-6.97ZM433.25,495.49l2.58-3.68,9.95,6.97-2.58,3.68-9.95-6.97ZM438.04,509.81l2.58-3.68,9.95,6.97-2.58,3.68-9.95-6.97ZM440.62,506.13l2.58-3.68,9.95,6.97-2.58,3.68-9.95-6.97ZM443.2,502.45l2.58-3.68,9.95,6.97-2.58,3.68-9.95-6.97ZM445.78,498.77l2.58-3.68,9.95,6.97-2.58,3.68-9.95-6.97ZM448.35,495.09l2.58-3.68,9.95,6.97-2.58,3.68-9.95-6.97ZM453.15,509.42l2.58-3.68,9.95,6.97-2.58,3.68-9.95-6.97ZM455.72,505.74l2.58-3.68,9.95,6.97-2.58,3.68-9.95-6.97Z"/>
        <path class="cls-1" d="M409.35,428.5l3.04-3.31,8.95,8.21-3.04,3.31-8.95-8.21ZM409.52,410.36l3.04-3.31,8.95,8.21-3.04,3.31-8.95-8.21ZM412.39,425.19l3.04-3.31,8.95,8.21-3.04,3.31-8.95-8.21ZM415.26,440.02l3.04-3.31,8.95,8.21-3.04,3.31-8.95-8.21ZM418.3,436.71l3.04-3.31,8.95,8.21-3.04,3.31-8.95-8.21ZM418.46,418.57l3.04-3.31,8.95,8.21-3.04,3.31-8.95-8.21ZM421.17,451.54l3.04-3.31,8.95,8.21-3.04,3.31-8.95-8.21ZM421.34,433.4l3.04-3.31,8.95,8.21-3.04,3.31-8.95-8.21ZM424.21,448.23l3.04-3.31,8.95,8.21-3.04,3.31-8.95-8.21ZM424.38,430.09l3.04-3.31,8.95,8.21-3.04,3.31-8.95-8.21ZM430.12,459.75l3.04-3.31,8.95,8.21-3.04,3.31-8.95-8.21ZM433.16,456.44l3.04-3.31,8.95,8.21-3.04,3.31-8.95-8.21ZM436.36,434.99l3.04-3.31,8.95,8.21-3.04,3.31-8.95-8.21ZM439.07,467.96l3.04-3.31,8.95,8.21-3.04,3.31-8.95-8.21ZM439.23,449.82l3.04-3.31,8.95,8.21-3.04,3.31-8.95-8.21ZM442.11,464.65l3.04-3.31,8.95,8.21-3.04,3.31-8.95-8.21ZM442.27,446.51l3.04-3.31,8.95,8.21-3.04,3.31-8.95-8.21ZM445.14,461.34l3.04-3.31,8.95,8.21-3.04,3.31-8.95-8.21ZM451.05,472.85l3.04-3.31,8.95,8.21-3.04,3.31-8.95-8.21ZM451.22,454.71l3.04-3.31,8.95,8.21-3.04,3.31-8.95-8.21ZM454.26,451.4l3.04-3.31,8.95,8.21-3.04,3.31-8.95-8.21ZM456.96,484.38l3.04-3.31,8.95,8.21-3.04,3.31-8.95-8.21ZM460,481.06l3.04-3.31,8.95,8.21-3.04,3.31-8.95-8.21ZM460.17,462.92l3.04-3.31,8.95,8.21-3.04,3.31-8.95-8.21ZM462.87,495.89l3.04-3.31,8.95,8.21-3.04,3.31-8.95-8.21ZM463.04,477.75l3.04-3.31,8.95,8.21-3.04,3.31-8.95-8.21ZM463.2,459.61l3.04-3.31,8.95,8.21-3.04,3.31-8.95-8.21ZM466.08,474.44l3.04-3.31,8.95,8.21-3.04,3.31-8.95-8.21ZM469.11,471.13l3.04-3.31,8.95,8.21-3.04,3.31-8.95-8.21ZM471.99,485.96l3.04-3.31,8.95,8.21-3.04,3.31-8.95-8.21ZM475.02,482.65l3.04-3.31,8.95,8.21-3.04,3.31-8.95-8.21Z"/>
        <path class="cls-1" d="M480.48,460.56l3.38-2.96,7.99,9.15-3.38,2.96-7.99-9.15ZM483.86,457.61l3.38-2.96,7.99,9.15-3.38,2.96-7.99-9.15ZM488.46,469.71l3.38-2.96,7.99,9.15-3.38,2.96-7.99-9.15ZM491.85,466.76l3.38-2.96,7.99,9.15-3.38,2.96-7.99-9.15Z"/>
      </g>
    </g>
  </g>
</svg>